<?xml version="1.0" encoding="UTF-8"?>
<svg width="211px" height="53px" viewBox="0 0 211 53" version="1.1" xmlns="http://www.w3.org/2000/svg" xmlns:xlink="http://www.w3.org/1999/xlink">
    <title>path2987</title>
    <g id="Page-1" stroke="none" stroke-width="1" fill="none" fill-rule="evenodd">
        <g id="Home" transform="translate(-501.000000, -173.000000)" fill="#F2F295" fill-rule="nonzero">
            <path d="M556.044072,225.720223 C556.044072,225.566246 555.993238,225.469773 555.931107,225.505836 C555.868978,225.541897 555.740602,225.397113 555.645829,225.184093 C555.545851,224.959376 555.391677,224.796785 555.278571,224.796785 C555.124505,224.796785 555.112064,224.764608 555.219244,224.643324 C555.323425,224.525436 555.319982,224.478843 555.20439,224.442317 C555.086025,224.404914 555.091201,224.352163 555.22865,224.195089 C555.361804,224.042925 555.368733,223.984455 555.257773,223.949383 C555.177685,223.924068 555.112162,223.855323 555.112162,223.796617 C555.112162,223.737911 555.163981,223.719956 555.227317,223.756718 C555.293349,223.795042 555.312877,223.75113 555.273098,223.653773 C555.234942,223.560393 555.263581,223.483993 555.336773,223.483993 C555.433728,223.483993 555.435998,223.424631 555.345129,223.265195 C555.244982,223.089453 555.25654,223.046395 555.403869,223.046395 C555.552105,223.046395 555.559306,223.018257 555.441414,222.899737 C555.290606,222.74812 554.99769,222.883686 555.035936,223.08742 C555.045811,223.140069 554.992506,223.204418 554.917461,223.230417 C554.827713,223.26151 554.804091,223.194814 554.848443,223.035534 C554.885531,222.90235 554.868298,222.819534 554.810155,222.851499 C554.752012,222.883464 554.599598,222.873403 554.47146,222.829143 C554.286713,222.765326 554.340974,222.732198 554.733562,222.669117 C555.042287,222.61951 555.22864,222.531417 555.22864,222.435082 C555.22864,222.350118 555.330509,222.2806 555.455015,222.2806 C555.579518,222.2806 555.753093,222.184454 555.840734,222.066945 C555.997868,221.856259 556.591216,221.568758 556.783549,221.610113 C556.837884,221.621805 557.178615,221.561145 557.540729,221.475332 C557.902842,221.389518 558.526837,221.284605 558.927382,221.242192 C559.32793,221.199778 559.684859,221.120691 559.72056,221.066441 C559.75626,221.012192 559.900322,220.966705 560.040698,220.965355 C560.18107,220.963968 560.610444,220.81742 560.994859,220.639609 C561.379273,220.461796 561.782435,220.315211 561.890775,220.313862 C561.999115,220.312474 562.120155,220.262182 562.159751,220.202011 C562.199348,220.141841 562.17258,220.092612 562.100279,220.092612 C561.938837,220.092612 561.997043,219.603335 562.159751,219.592706 C562.223819,219.588524 562.506066,219.523307 562.786963,219.447783 C563.067859,219.372261 563.425605,219.340621 563.581952,219.377474 C563.738297,219.414328 564.032673,219.39626 564.236122,219.337328 C564.439568,219.278395 564.898533,219.176417 565.256043,219.110712 C566.237148,218.930398 566.761078,218.779767 566.761078,218.678013 C566.761078,218.572555 560.785266,218.646147 559.305766,218.769821 C558.526276,218.834978 558.228861,218.817167 557.907894,218.686104 C557.683654,218.594535 557.473972,218.512497 557.441936,218.5038 C557.409902,218.495101 557.230498,218.428566 557.043258,218.355939 C556.856019,218.283314 556.62013,218.254133 556.519056,218.291094 C556.417985,218.328056 554.867524,218.375969 553.07359,218.397568 C551.279656,218.419169 549.576,218.485865 549.28769,218.54578 C548.999379,218.605697 548.135366,218.711874 547.36766,218.781729 C546.599956,218.851585 545.871535,218.959153 545.748949,219.020764 C545.626362,219.082378 545.270038,219.109686 544.957117,219.081448 C544.644195,219.053209 544.359907,219.073046 544.325362,219.125546 C544.290817,219.178038 544.213755,219.192662 544.154114,219.158044 C544.094473,219.123428 544.045675,219.147225 544.045675,219.21096 C544.045675,219.27468 544.006359,219.317046 543.958306,219.305105 C543.764539,219.256953 542.764291,219.45599 542.764291,219.542702 C542.764291,219.649476 541.884335,219.82697 541.551614,219.787306 C541.429229,219.772722 541.230611,219.860058 541.110242,219.981396 C540.989873,220.102734 540.801694,220.207827 540.692067,220.214935 C540.582444,220.222029 540.17823,220.238472 539.793815,220.25145 C539.409401,220.264409 538.885199,220.331878 538.628923,220.401342 C538.372646,220.47081 537.964933,220.555325 537.722895,220.589156 C537.480855,220.622984 537.311249,220.693863 537.345997,220.746658 C537.454425,220.911424 537.195566,220.954581 535.171689,221.109158 C535.064144,221.117362 534.985513,221.170722 534.996955,221.227714 C535.008392,221.284704 534.912916,221.36031 534.784778,221.395718 C534.65664,221.431131 534.419451,221.544652 534.257692,221.647991 C534.046091,221.783167 533.604926,221.855619 532.685086,221.906252 C531.981914,221.944959 531.28542,221.971478 531.137328,221.965184 C530.989231,221.958903 530.707071,222.031924 530.510301,222.127486 C530.307089,222.226174 530.121473,222.257883 530.080627,222.200887 C529.98035,222.060952 529.570237,221.926542 529.660077,222.063053 C529.754761,222.206935 529.641404,222.199566 529.331248,222.041673 C528.705241,221.723002 525.74165,221.965228 525.432484,222.360335 C525.336769,222.482654 525.326273,222.565171 525.40336,222.589303 C525.469648,222.610052 525.523881,222.670613 525.523881,222.723881 C525.523881,222.777148 525.450554,222.794305 525.360932,222.762005 C525.271308,222.729705 525.163375,222.755862 525.121078,222.820139 C525.008124,222.991781 525.706236,222.966884 526.082991,222.785832 C526.256,222.702692 526.633443,222.59843 526.921752,222.554137 C527.210064,222.509841 527.53769,222.457619 527.649811,222.438082 C527.761932,222.418544 527.853667,222.467045 527.853667,222.545862 C527.853667,222.64723 527.998539,222.678507 528.348746,222.652751 C528.731439,222.624606 528.796992,222.641832 528.637521,222.728693 C528.524051,222.790486 528.457445,222.880902 528.489502,222.929617 C528.558649,223.034686 527.907366,223.14035 526.646475,223.228627 C525.938502,223.278191 525.707447,223.258573 525.628976,223.142224 C525.555339,223.033043 525.52696,223.029259 525.525666,223.128453 C525.523029,223.32986 524.822849,223.297331 524.572018,223.084148 C524.454852,222.984568 524.358989,222.949665 524.358989,223.006589 C524.358989,223.069366 523.980877,223.080496 523.397953,223.034876 C522.869384,222.993513 522.043766,222.932546 521.563248,222.899394 C521.082729,222.866244 520.517391,222.781886 520.306942,222.711937 C520.09649,222.641985 519.793823,222.608175 519.634346,222.636807 C519.47487,222.665437 519.311332,222.63859 519.270928,222.577231 C519.225763,222.508601 519.256221,222.499692 519.349951,222.554106 C519.444813,222.609164 519.474163,222.59965 519.42762,222.528922 C519.339901,222.395627 518.784324,222.274881 518.126814,222.24622 C517.738954,222.229317 517.658738,222.186509 517.648207,221.990846 C517.636898,221.780729 517.71724,221.746896 518.405387,221.671984 C518.828794,221.625895 519.306268,221.598834 519.46644,221.611851 L519.757664,221.635523 L519.448579,221.477742 C518.912589,221.204131 518.389952,221.088679 517.369635,221.018489 C516.825048,220.981027 516.038744,220.869976 515.622296,220.771709 C514.664464,220.545696 511.340912,220.528365 511.195961,220.748626 C511.146079,220.824427 511.043602,220.850659 510.96824,220.806914 C510.773613,220.693952 508.629919,220.655916 508.702839,220.766722 C508.771042,220.870364 508.753685,220.872118 507.229817,220.915556 C506.15428,220.946213 505.700295,220.983592 504.089861,221.174073 C503.355539,221.260929 502.926203,221.21118 502.506507,220.990602 C502.330744,220.898225 502.368625,220.845686 502.791912,220.594738 C503.133325,220.392334 503.550421,220.273279 504.18,220.198538 C505.254412,220.070983 506.279528,219.910299 507.018093,219.753671 C507.459872,219.659984 507.547985,219.602074 507.501694,219.435838 C507.468468,219.316511 507.377673,219.256862 507.281836,219.291401 C507.192045,219.323758 507.118582,219.29574 507.118582,219.229129 C507.118582,219.162521 507.210316,219.107272 507.322437,219.106351 C507.496653,219.104964 507.500886,219.08927 507.351561,218.998626 C507.24105,218.931556 507.229002,218.89196 507.318783,218.890902 C507.397078,218.889911 507.43056,218.81537 507.393443,218.72453 C507.346609,218.609914 507.462836,218.502786 507.775688,218.372212 L508.225228,218.184586 L507.087058,218.118635 C506.461064,218.08236 505.635446,218.057668 505.252353,218.063761 C504.869259,218.069864 504.555819,218.068695 504.555819,218.061165 C504.555819,218.053655 504.660658,217.933971 504.788796,217.795221 C504.916934,217.656467 505.021776,217.576225 505.021776,217.616903 C505.021776,217.657583 505.13982,217.61829 505.284095,217.529448 C505.428371,217.440667 505.935022,217.311405 506.409991,217.242198 C506.884956,217.172988 507.481177,217.047574 507.734919,216.963495 C507.988667,216.879417 508.386263,216.808873 508.618466,216.806729 C509.267202,216.800744 510.901346,216.401698 510.428818,216.364658 C510.370088,216.360061 510.217196,216.333635 510.089056,216.305944 C509.960919,216.278255 509.792071,216.24242 509.713839,216.226314 C509.447318,216.17144 509.430295,216.064962 509.676321,215.991628 C509.811352,215.951378 510.058847,215.799195 510.226311,215.653442 C510.393775,215.507687 510.647766,215.388435 510.79074,215.388435 C510.933711,215.388435 511.110491,215.32076 511.183586,215.238049 C511.292804,215.11446 511.196752,215.074854 510.644526,215.015784 C510.274949,214.976251 509.815306,214.920059 509.6231,214.890918 C509.165825,214.821591 507.346234,214.831616 507.221258,214.904155 C507.052653,215.00202 505.720711,215.04817 505.720711,214.95615 C505.720711,214.907793 505.79934,214.806943 505.895444,214.732039 C505.991549,214.657136 506.070178,214.544443 506.070178,214.481613 C506.070178,214.418783 506.035686,214.399768 505.99353,214.439358 C505.951372,214.47895 505.846533,214.456499 505.760552,214.389496 C505.67399,214.322027 505.604222,214.314315 505.604222,214.372216 C505.604222,214.429724 505.525591,214.476776 505.429487,214.476776 C505.149724,214.476776 505.226467,214.359615 505.610911,214.199801 C506.043248,214.020076 505.98134,213.944693 505.284351,213.802148 C504.64853,213.672111 504.527323,213.468307 504.983184,213.295749 C505.454957,213.117167 507.671446,212.885384 508.9385,212.882134 C509.532408,212.880549 510.15739,212.846585 510.327355,212.806523 L510.636377,212.733684 L510.304472,212.478705 C510.121925,212.338464 509.883928,212.221956 509.775588,212.219792 C509.499469,212.214283 509.415544,212.040269 509.563653,211.780373 C509.720044,211.50594 510.733335,211.012463 511.140462,211.012463 C511.312112,211.012463 511.411363,210.965248 511.370441,210.903062 C511.330843,210.842894 511.202306,210.793663 511.084802,210.793663 C510.887448,210.793663 510.668016,210.520544 510.711254,210.328718 C510.755206,210.133722 508.906971,210.351795 508.752297,210.559853 C508.634165,210.71876 505.659544,211.134031 505.36712,211.03244 L505.08865,210.935697 L505.359532,210.799551 C505.508513,210.724671 506.476344,210.530965 507.510267,210.369094 C509.402219,210.07289 509.862678,209.86377 508.622935,209.86377 C508.242002,209.86377 507.891559,209.801281 507.777634,209.713035 C507.615818,209.5877 507.391774,209.584236 506.448011,209.692478 C504.71264,209.891512 503.704103,210.028219 503.467586,210.096474 C503.310887,210.141696 503.263763,210.109275 503.292851,209.976248 C503.335245,209.78237 503.695644,209.554895 504.260649,209.365395 C504.746976,209.202285 504.444674,209.058474 503.822851,209.157127 C503.553257,209.199897 503.09679,209.269572 502.80848,209.311959 L502.284278,209.389027 L502.721113,208.995878 C502.961372,208.779648 503.157948,208.585138 503.157948,208.563634 C503.157948,208.542132 502.832888,208.490001 502.435594,208.447789 C501.496239,208.347979 500.993616,208.100674 501.000061,207.741491 C501.003542,207.55207 501.757143,207.29795 502.45835,207.249754 C502.747026,207.229915 503.402573,207.135465 503.915126,207.039869 C504.42768,206.944274 505.214048,206.843907 505.66261,206.816833 C506.111173,206.789758 506.792633,206.715748 507.176969,206.65237 C509.563904,206.258743 510.101131,206.161858 510.204013,206.106457 C510.267237,206.072411 510.083766,205.990774 509.796297,205.925041 C509.507012,205.858892 509.273632,205.741378 509.273632,205.661862 C509.273632,205.477767 510.447724,205.077872 511.513292,204.899035 C512.031638,204.812038 512.415154,204.682613 512.540724,204.552302 C512.653115,204.435672 513.04307,204.288584 513.42888,204.217299 C514.304223,204.055568 514.280585,203.90217 513.329467,203.572116 C513.12555,203.501352 512.982334,203.38652 513.011207,203.316931 C513.076921,203.158545 513.616855,202.916909 513.905056,202.916909 C514.024203,202.916909 514.089288,202.867679 514.049692,202.807508 C514.010094,202.74734 513.587638,202.698109 513.110903,202.698109 C512.325428,202.698109 512.010008,202.586257 512.38972,202.442365 C512.729005,202.313792 511.028974,202.383401 510.189293,202.532459 C509.143634,202.718088 508.574696,202.64039 508.574696,202.311961 C508.574696,202.160556 508.878975,201.961758 509.718109,201.56493 C510.508595,201.191103 510.814216,200.995515 510.708266,200.93126 C510.507017,200.809213 510.70565,200.684431 511.48693,200.442084 C512.589712,200.100014 513.464558,199.526618 513.349702,199.221178 C513.271252,199.012561 513.701072,198.898773 515.476866,198.65805 C516.359542,198.538397 517.243512,198.364701 517.44124,198.272065 C517.63897,198.17943 518.057583,198.074727 518.371494,198.039392 C519.237062,197.941961 520.893279,197.548475 521.152332,197.378713 C521.278708,197.295899 521.54081,197.224681 521.734778,197.220451 C521.928748,197.21623 522.192289,197.170453 522.320427,197.118742 C522.505943,197.043876 522.458478,197.021437 522.08745,197.008606 C521.094545,196.974267 520.567674,196.882332 520.436033,196.720445 C520.346169,196.609934 520.20578,196.57595 520.02832,196.621744 C519.795414,196.68185 519.786392,196.674692 519.963624,196.570427 C520.076903,196.503785 520.260374,196.463285 520.371337,196.480422 C520.482299,196.497563 520.643613,196.470098 520.729807,196.419362 C520.82253,196.364797 521.003847,196.386105 521.173833,196.471543 C521.397742,196.584081 521.509768,196.587423 521.681526,196.486702 C521.820967,196.40492 521.927818,196.396801 521.972434,196.464601 C522.01122,196.523539 522.341278,196.573505 522.705893,196.575637 C523.070509,196.577757 523.499881,196.649869 523.660053,196.73586 C524.009007,196.923198 524.126011,196.936934 524.126011,196.790559 C524.126011,196.73039 524.044286,196.68116 523.944401,196.68116 C523.844516,196.68116 523.791508,196.637526 523.826604,196.584197 C523.8617,196.530869 523.78064,196.460277 523.646471,196.427326 C523.512305,196.394376 523.425305,196.302627 523.453145,196.223441 C523.504515,196.077316 524.026305,195.991695 525.64037,195.864543 C527.098578,195.749671 527.504198,195.687846 527.504198,195.580462 C527.504198,195.523979 527.425569,195.477767 527.329467,195.477767 C527.232392,195.477767 527.154731,195.380523 527.154731,195.258967 C527.154731,195.098515 527.232392,195.040169 527.445956,195.040169 C527.781047,195.040169 527.83819,194.871695 527.528864,194.795727 C527.414291,194.767591 526.824565,194.770859 526.21836,194.80298 C524.452799,194.896556 523.74654,194.865418 523.377183,194.677716 C523.18957,194.582371 523.00248,194.523859 522.961426,194.547687 C522.920374,194.571516 522.908444,194.452421 522.934916,194.283036 C522.992675,193.913439 522.828834,193.855793 521.632768,193.824892 C520.916928,193.806385 520.861367,193.789793 521.110142,193.668706 C521.519413,193.469506 523.020705,193.183622 523.915967,193.134405 C524.373505,193.109253 524.805696,193.019416 524.96117,192.917149 C525.292096,192.699465 525.491514,192.696748 525.715258,192.906865 C525.815903,193.001386 526.096381,193.069966 526.376751,193.068607 C527.240129,193.064426 530.461434,192.756754 530.898799,192.636696 C531.307223,192.524584 531.319608,192.506485 531.23344,192.147676 C531.179146,191.921582 531.191361,191.730562 531.264514,191.66186 C531.347591,191.58384 531.344008,191.502185 531.252994,191.399188 C530.974706,191.084282 531.328715,191.019086 533.028721,191.072158 C534.34961,191.113399 534.761663,191.090805 535.029692,190.96244 C535.313274,190.826631 536.591807,190.6393 537.464036,190.605762 C537.592174,190.600848 537.959116,190.552795 538.27946,190.499003 L538.861907,190.401202 L538.337707,190.321624 C538.049394,190.277853 537.184461,190.267148 536.415632,190.297835 C535.646804,190.32852 534.545979,190.347075 533.969358,190.339067 C533.392738,190.331062 532.265703,190.404699 531.46484,190.502708 C529.880207,190.696635 528.246023,190.832286 527.542526,190.828295 C527.297209,190.826908 527.063565,190.868755 527.023323,190.921303 C526.983079,190.973848 526.786503,191.023122 526.586487,191.030801 C526.386472,191.038489 526.222823,191.08552 526.222823,191.135337 C526.222823,191.185158 526.104878,191.194763 525.960723,191.156681 C525.755544,191.102481 525.736569,191.112394 525.873354,191.202334 C526.023983,191.301372 526.019963,191.317456 525.844234,191.318899 C525.732113,191.31989 525.640376,191.375465 525.640376,191.442555 C525.640376,191.517471 525.529589,191.496365 525.353252,191.387856 C525.03437,191.191634 524.894557,191.160824 524.991503,191.308137 C525.026597,191.361465 524.951061,191.430701 524.823642,191.461994 C524.691052,191.494558 524.591958,191.464789 524.591941,191.392382 C524.59192,191.319137 524.408006,191.265874 524.155106,191.265874 C523.877466,191.265874 523.72824,191.313798 523.745572,191.397395 C523.764351,191.487912 523.638808,191.5128 523.342923,191.477223 C522.857981,191.418913 522.379571,191.164007 522.376895,190.962506 C522.375629,190.876371 522.334651,190.887073 522.262189,190.992376 C522.174544,191.119742 522.148868,191.087522 522.147483,190.848434 C522.145205,190.453854 522.337134,190.117186 522.564379,190.117186 C522.662009,190.117186 522.709492,190.067956 522.669896,190.007787 C522.630298,189.947616 522.69273,189.894619 522.808633,189.890016 C523.192501,189.874758 523.436303,189.808474 523.695858,189.648757 C523.928585,189.505548 524.475477,189.56067 524.475477,189.727332 C524.475477,189.757464 524.405248,189.756808 524.319409,189.725747 C524.23357,189.694815 524.089415,189.755039 523.999063,189.859581 C523.857494,190.023388 523.857651,190.036718 524.000329,189.956012 C524.127545,189.88399 524.146807,189.908694 524.08375,190.063016 C524.034707,190.183046 524.061856,190.299474 524.151322,190.352786 C524.374189,190.485591 524.561842,190.46061 524.359124,190.325123 C524.227643,190.237246 524.295138,190.222816 524.631788,190.266831 C524.879236,190.29918 525.174358,190.269506 525.292142,190.200422 C525.453346,190.105875 525.546555,190.107833 525.675687,190.208487 C525.813249,190.315707 525.863766,190.303841 525.936618,190.147207 C525.986307,190.040372 526.018638,189.916042 526.008466,189.870915 C525.998296,189.825787 526.064235,189.788866 526.154999,189.788866 C526.245765,189.788866 526.34001,189.732562 526.364435,189.663747 C526.388859,189.594933 526.56263,189.523228 526.750588,189.504409 C526.938547,189.485584 527.150897,189.394966 527.222481,189.303029 C527.294067,189.211089 527.395119,189.172028 527.447044,189.216218 C527.498969,189.260407 527.508534,189.210412 527.468305,189.105122 C527.378256,188.869441 527.60106,188.84741 527.697115,189.082491 C527.758164,189.231902 527.791234,189.229948 527.984685,189.065529 C528.191197,188.890012 528.203367,188.891261 528.205051,189.08815 C528.206528,189.262757 528.225138,189.269946 528.319757,189.132456 C528.488099,188.887826 528.464075,188.834542 528.152293,188.761055 C527.954558,188.714446 527.873948,188.624183 527.886815,188.463788 C527.907324,188.208274 528.3131,188.017265 528.780634,188.043062 C529.216424,188.067116 529.601138,187.926325 529.601138,187.742797 C529.601138,187.624655 529.716916,187.589987 530.037976,187.612001 C530.507468,187.644182 531.297316,187.521048 531.581455,187.371366 C531.722561,187.297037 531.711353,187.277687 531.523213,187.270817 C531.395073,187.26618 531.028133,187.239236 530.707787,187.21103 C529.717237,187.123823 528.399648,187.126562 527.924328,187.216836 C527.598021,187.278798 527.493431,187.268369 527.551787,187.179692 C527.601901,187.103544 527.570397,187.078938 527.46937,187.115348 C527.373549,187.149881 527.218922,187.049738 527.095987,186.873534 C526.9459,186.658414 526.92617,186.560264 527.026684,186.528789 C527.121071,186.499249 527.098247,186.433996 526.957183,186.33007 C526.765738,186.189037 526.778082,186.180397 527.096622,186.232374 C527.288826,186.263743 527.380562,186.260396 527.300477,186.224923 C527.005459,186.094312 527.16794,185.959887 527.620792,185.959887 C527.914947,185.959887 528.087406,186.010308 528.088531,186.096634 C528.089797,186.197261 528.116771,186.194175 528.19046,186.084962 C528.253378,185.991707 528.317837,185.97792 528.363871,186.047865 C528.442069,186.166693 528.59036,186.157453 528.954449,186.011067 C529.079302,185.96087 529.353754,185.916508 529.564338,185.912492 C530.047142,185.903297 530.203896,185.631694 529.726403,185.631694 C529.537556,185.631694 529.363991,185.560559 529.326003,185.467596 C529.280756,185.356867 529.331658,185.303495 529.482487,185.303495 C529.605428,185.303495 529.747942,185.241959 529.799177,185.166748 C529.932767,184.970634 530.407494,184.738339 530.529711,184.809281 C530.586749,184.842382 530.666338,184.819467 530.706582,184.758282 C530.746824,184.69714 530.924403,184.647097 531.1012,184.647097 C531.277997,184.647097 531.707369,184.567148 532.055361,184.469443 C532.604634,184.315203 532.653987,184.27977 532.429601,184.200729 C532.287444,184.150658 531.314779,184.116357 530.268122,184.124515 C529.221467,184.132739 528.296619,184.099609 528.212907,184.051018 C528.126224,184.000704 528.026389,184.014811 527.980997,184.08379 C527.887393,184.226022 524.266184,184.333847 524.176178,184.197073 C524.144539,184.148994 524.037306,184.138969 523.937883,184.174808 C523.815451,184.21893 523.799337,184.264464 523.88795,184.31589 C523.959912,184.35766 523.859465,184.391834 523.664738,184.391834 C523.470012,184.391834 523.310688,184.344782 523.310688,184.287268 C523.310688,184.229757 523.230791,184.244985 523.133138,184.321096 C523.035487,184.397204 522.918325,184.424481 522.872777,184.381704 C522.827232,184.338928 522.920235,184.210811 523.079451,184.096997 L523.368933,183.890043 L523.077708,183.942622 C522.82251,183.988688 522.815305,183.982331 523.019466,183.891234 C523.355426,183.741337 523.907548,183.756849 524.231201,183.925291 C524.546648,184.089459 524.941538,184.035362 524.941538,183.827984 C524.941538,183.732456 525.171556,183.689545 525.698718,183.686749 C526.173791,183.684232 526.4559,183.727512 526.4559,183.802925 C526.4559,183.869038 526.521423,183.842459 526.601509,183.743864 C526.706688,183.614374 527.02208,183.545096 527.737281,183.494385 C528.281868,183.45577 529.058318,183.354727 529.462725,183.269842 C529.867133,183.184967 530.365123,183.110783 530.569373,183.105007 C530.773621,183.099201 531.202835,183.027283 531.523181,182.945127 C532.069352,182.805061 532.007683,182.799469 530.533022,182.855433 C529.668089,182.888254 528.881787,182.915917 528.785685,182.916903 C528.689581,182.917894 527.483914,183.034104 526.106431,183.175137 C524.728945,183.31618 523.227174,183.446617 522.769165,183.46499 C522.311156,183.483379 521.960413,183.535324 521.989738,183.580451 C522.019063,183.625577 521.817178,183.662704 521.541101,183.662936 C521.265029,183.662936 520.567366,183.734711 519.990745,183.821869 C519.001953,183.971339 516.676,184.125482 516.991873,184.020597 C517.072359,183.993884 517.108579,183.926985 517.072365,183.871959 C517.036151,183.816935 517.153769,183.769543 517.333739,183.76665 C517.513712,183.763836 517.844431,183.667987 518.068671,183.553805 C518.292916,183.439632 518.581224,183.300301 518.709364,183.244193 C519.130541,183.059746 526.000952,181.992325 527.620792,181.85967 C528.101309,181.82032 529.490442,181.690597 530.707755,181.571421 C531.925069,181.452237 533.531772,181.306958 534.278207,181.248575 C535.024645,181.190171 535.887588,181.071112 536.195857,180.983992 C536.600812,180.869538 536.778639,180.859438 536.836672,180.947622 C536.910248,181.059433 538.135803,181.028819 539.619183,180.87813 C539.843426,180.855344 540.551098,180.805951 541.191789,180.768361 C542.34142,180.700912 544.092947,180.473977 545.073325,180.265468 C545.350167,180.206591 545.625742,180.18689 545.685712,180.221695 C545.745682,180.256507 546.557285,180.176499 547.489274,180.043913 C548.86823,179.847729 549.23344,179.827779 549.450364,179.936823 C549.66849,180.046448 549.947843,180.028055 550.9876,179.835626 C552.718407,179.515292 554.97693,179.098851 556.102414,178.892517 C556.614966,178.798547 557.359621,178.651834 557.757204,178.566506 C558.154785,178.481165 558.652776,178.411588 558.863852,178.411879 C559.074926,178.411879 559.483513,178.341527 559.771825,178.254871 C560.257716,178.108836 561.252534,177.946719 563.907194,177.580979 C565.270983,177.393088 565.54571,177.349721 566.935914,177.102923 C567.576605,176.989187 568.625007,176.814879 569.265697,176.715566 C569.906388,176.616256 570.587853,176.510588 570.780059,176.480747 C572.140204,176.269644 572.399234,176.273563 572.669743,176.509389 C572.815695,176.636632 572.935109,176.796631 572.935109,176.86494 C572.935109,176.933251 572.974424,176.983313 573.022477,176.976192 C573.070529,176.969137 573.229633,176.969137 573.376044,176.976192 C573.598649,176.987011 573.623167,177.022616 573.525752,177.193555 C573.383148,177.443806 573.497221,177.578784 573.710694,177.4124 C573.950886,177.225195 573.896188,177.393575 573.619856,177.692047 C573.474904,177.848609 573.183774,177.988982 572.915863,178.031489 C572.524701,178.093558 572.480064,178.12777 572.605318,178.269501 C572.793306,178.482221 572.634491,178.495418 580.099198,177.64718 C580.611751,177.588933 581.529104,177.517672 582.137761,177.488818 C582.746416,177.459966 583.84724,177.384533 584.584033,177.321196 C585.320826,177.257869 586.290601,177.18655 586.739085,177.16271 C587.187568,177.138879 587.761804,177.068371 588.015162,177.00603 C588.268523,176.9437 589.273642,176.889662 590.248757,176.885966 C591.223876,176.882281 592.091194,176.857307 592.176132,176.830486 C592.385741,176.764313 595.115464,176.630016 595.764996,176.653923 C596.052205,176.664525 596.367363,176.741265 596.465345,176.824535 C596.684877,177.011121 597.244002,177.029823 599.844125,176.937584 C601.039346,176.895167 602.136993,176.798739 602.497411,176.704479 C602.967702,176.581481 603.747748,176.54781 605.817353,176.561182 C607.305226,176.570852 609.780658,176.541504 611.318316,176.496112 C614.434403,176.404108 614.267802,176.403061 617.492246,176.534515 C619.579896,176.619622 620.784267,176.623155 622.617774,176.549556 C622.938118,176.536695 623.108484,176.503654 622.996363,176.476136 C622.884244,176.44863 622.792507,176.37465 622.792507,176.311756 C622.792507,176.236316 623.119492,176.219084 623.753544,176.261125 C624.282114,176.296179 625.867823,176.374745 627.277344,176.435722 C628.686862,176.496707 630.495359,176.597102 631.296222,176.658824 C634.513735,176.906811 635.740822,176.994212 637.411903,177.094393 C641.591154,177.344973 643.794259,177.444817 646.090358,177.48771 C647.1475,177.507467 648.457997,177.557171 649.00259,177.598158 C649.54717,177.639153 650.359687,177.668278 650.808173,177.662878 C651.256652,177.657567 652.147797,177.701475 652.788492,177.760661 C653.429179,177.819847 655.504148,177.889947 657.399501,177.916449 C659.294873,177.94295 661.077165,178.012615 661.360139,178.07126 C661.643123,178.129904 662.286487,178.204552 662.789849,178.237139 C663.293208,178.269727 663.869833,178.321715 664.07123,178.352668 C664.760008,178.45851 665.835346,178.530477 667.407893,178.575962 C668.792673,178.616009 670.138179,178.712138 672.125699,178.913034 C672.446052,178.945399 672.891625,178.985631 673.115863,179.002417 C673.340103,179.019221 673.916726,179.064546 674.397244,179.103171 C674.877765,179.141796 675.690208,179.203508 676.202676,179.240324 C676.715134,179.27712 677.160706,179.322403 677.192829,179.34094 C677.224954,179.359488 677.549345,179.404385 677.913712,179.440774 C678.278078,179.477146 678.652984,179.53458 678.746812,179.568406 C678.840658,179.602223 679.381263,179.644554 679.948153,179.662483 C681.505142,179.711704 681.503093,179.711402 681.503093,179.888227 C681.503093,179.978482 681.558603,180.052325 681.626446,180.052325 C681.694312,180.052325 681.711918,179.994737 681.665587,179.924345 C681.608159,179.83707 681.646069,179.819664 681.784728,179.869639 C681.896596,179.909957 682.103711,179.942932 682.245014,179.942932 C682.418407,179.942932 682.50762,180.014049 682.519457,180.161728 C682.54043,180.423253 682.477215,180.435802 682.243621,180.216426 C681.999798,179.98744 681.727032,180.004605 681.808961,180.243777 C681.849306,180.36158 681.836695,180.388197 681.776176,180.312968 C681.709148,180.229651 681.381005,180.214006 680.745914,180.263865 C679.652679,180.349679 678.827502,180.32606 677.309476,180.165511 C676.700824,180.101139 675.914517,180.022001 675.562133,179.989636 C675.209761,179.957291 674.86025,179.912047 674.785482,179.889077 C674.710695,179.866126 674.618991,179.922005 674.581715,180.013244 C674.53151,180.136126 674.420889,180.159966 674.155234,180.105164 C673.737962,180.01909 673.469752,179.986366 672.358685,179.885932 C671.910197,179.845391 671.511894,179.794112 671.473577,179.771983 C671.391917,179.724834 669.833845,179.717082 667.699111,179.753218 C666.344683,179.776129 665.389701,179.713509 664.677176,179.55506 C664.275687,179.465782 661.466936,179.427157 661.466936,179.510928 C661.466936,179.554006 661.820773,179.624811 662.25324,179.668285 C662.685708,179.711767 663.144386,179.766744 663.272522,179.790479 C664.171373,179.956978 666.578627,180.143583 668.514541,180.196838 C668.963019,180.209183 669.385388,180.252599 669.45313,180.293333 C669.56577,180.361073 673.132842,180.622297 673.324236,180.576831 C673.369795,180.565992 673.800233,180.591574 674.280751,180.633675 C675.023642,180.698744 676.920776,180.829695 677.396845,180.848765 C677.568951,180.855641 677.589247,180.996861 677.431286,181.088538 C677.317935,181.154333 676.439833,181.169523 675.645185,181.119433 C675.402535,181.104135 675.16141,181.026828 675.109329,180.947632 C675.038889,180.840502 674.838717,180.822612 674.327351,180.877764 C673.949344,180.918537 673.604976,180.971473 673.562086,180.99541 C673.519206,181.019357 673.404608,180.964264 673.307413,180.872994 C673.210226,180.781732 673.102975,180.749203 673.069069,180.800736 C673.003265,180.900714 670.652099,180.858132 669.970656,180.744625 C669.746407,180.707269 669.351154,180.666553 669.092297,180.654148 C668.83344,180.641744 668.505814,180.573367 668.364244,180.502211 C668.158415,180.398769 668.106819,180.402117 668.106819,180.518916 C668.106819,180.604894 667.951074,180.676784 667.728235,180.693679 C666.80714,180.763478 665.517888,180.75686 664.495661,180.677093 C663.760427,180.619726 663.446523,180.626896 663.56037,180.698506 C664.019552,180.987248 663.158059,181.129654 661.816405,180.986774 C660.627007,180.8601 660.414388,180.853434 659.900333,180.926697 C659.635121,180.964499 659.263183,180.95643 659.073798,180.908764 C658.574929,180.78323 655.981835,180.560921 654.827053,180.544696 C654.28246,180.537047 653.496156,180.49711 653.07971,180.455979 C652.663264,180.414849 651.824539,180.355923 651.215884,180.325038 C650.60723,180.294153 649.165672,180.196507 648.012424,180.108043 C646.859189,180.019578 645.143846,179.914112 644.200558,179.873688 C642.663401,179.807806 642.477788,179.819077 642.411066,179.982366 C642.347612,180.13767 642.145153,180.16386 641.039165,180.159895 C640.325547,180.157379 639.505799,180.195171 639.217489,180.243976 L638.693285,180.33273 L639.566958,180.454712 C640.047476,180.521803 640.624099,180.575349 640.848339,180.573694 C641.072577,180.571911 641.989933,180.64693 642.886898,180.740105 C643.783865,180.833273 645.487525,180.964476 646.672802,181.031653 C647.85808,181.098823 648.944461,181.177341 649.086969,181.206145 C649.229497,181.234949 650.408953,181.306443 651.707982,181.36501 C654.042686,181.470291 655.678594,181.556201 656.923854,181.638948 C657.276239,181.662362 658.485079,181.73137 659.610168,181.792316 C660.735267,181.853253 661.731254,181.925038 661.823463,181.951829 C661.915693,181.978622 662.09598,182.037778 662.224116,182.083283 C662.35225,182.128788 662.658622,182.179673 662.90493,182.196391 C663.151226,182.213116 663.413535,182.304827 663.487818,182.400231 C663.595069,182.537982 663.898546,182.57951 664.962055,182.601967 C665.698607,182.617523 666.353657,182.660535 666.417729,182.697515 C666.481801,182.734505 666.927374,182.793661 667.407893,182.828969 C669.70495,182.997762 672.001233,183.134855 673.057612,183.166273 C673.698307,183.185336 675.061236,183.28689 676.086337,183.391967 C677.111438,183.497036 678.421946,183.599345 678.998569,183.619318 C682.989489,183.757543 686.176907,183.931618 687.851748,184.102811 C688.428373,184.161755 689.439069,184.241636 690.097743,184.280331 C690.756428,184.319033 691.323037,184.392781 691.356881,184.444207 C691.390728,184.495653 691.244973,184.541729 691.032954,184.546623 C690.820954,184.551557 690.49951,184.565587 690.318635,184.577934 C690.137759,184.59026 689.966993,184.565728 689.939124,184.523393 C689.911274,184.481071 689.694805,184.496668 689.458067,184.558051 C689.217808,184.620352 688.690722,184.63775 688.26497,184.597441 C687.845494,184.557712 685.615159,184.505947 683.308677,184.482386 C681.002184,184.458837 678.250126,184.407778 677.192985,184.368931 C675.308686,184.299681 674.774738,184.342041 676.010839,184.462697 C676.353735,184.496174 676.659643,184.547378 676.690632,184.576484 C676.773713,184.654508 676.347749,184.847548 675.994406,184.891979 C675.582678,184.943761 675.452761,185.082347 675.804814,185.094219 C675.959655,185.09945 676.767801,185.149592 677.600694,185.205673 C678.433597,185.261753 680.071725,185.33672 681.240991,185.372278 C683.163089,185.43072 683.366919,185.455296 683.366919,185.628654 C683.366919,185.86928 683.835879,185.926183 686.662103,186.028484 C687.801728,186.06974 688.7615,186.145026 688.794911,186.195804 C688.828334,186.246572 689.085368,186.28812 689.366116,186.28812 C690.323127,186.28812 690.054864,186.590204 688.879292,186.836316 C688.547472,186.905776 688.101899,186.953556 687.889137,186.942477 C686.47038,186.868641 686.842535,187.084041 688.434203,187.257952 C689.074889,187.327965 689.966035,187.409087 690.414511,187.43823 C690.863,187.467373 691.675514,187.540287 692.220097,187.600258 C692.76469,187.660238 693.865514,187.741774 694.666377,187.781446 C695.652585,187.830307 696.160077,187.899857 696.238977,187.996942 C696.303511,188.07637 696.719124,188.172062 697.170889,188.211529 C697.619376,188.250705 698.038738,188.342867 698.102811,188.416334 C698.166874,188.489801 698.602134,188.583123 699.070064,188.623712 C699.537992,188.664312 700.038334,188.769825 700.181953,188.858194 C700.346521,188.959459 700.850323,189.036671 701.544471,189.067005 C703.041178,189.132421 704.213831,189.255699 704.27884,189.354468 C704.347141,189.45827 703.327146,189.606549 703.170436,189.515597 C703.106166,189.478297 703.053606,189.494447 703.053606,189.551465 C703.053606,189.608493 703.237091,189.687477 703.461321,189.726982 C703.904041,189.80498 703.987744,189.941073 703.665189,190.058506 C703.284545,190.197085 703.817235,190.416583 705.014808,190.614604 C706.020666,190.780928 706.656324,190.986493 706.192989,190.995618 C705.757506,191.004198 706.429794,191.197038 707.129639,191.264286 C707.545119,191.304209 707.945998,191.384362 708.02046,191.442399 C708.094922,191.500437 708.487381,191.598066 708.892586,191.659354 C710.018481,191.829637 710.006307,191.966453 708.85775,192.051231 C708.428618,192.082904 708.036285,192.176746 707.918293,192.27593 C707.752764,192.415092 707.550352,192.431742 706.811662,192.366954 C705.309596,192.235214 705.012212,192.260848 704.78678,192.541515 C704.676448,192.678876 704.608865,192.825699 704.636548,192.867788 C704.664252,192.909875 705.040191,192.978768 705.471981,193.020883 C705.903772,193.062999 706.309482,193.136096 706.373563,193.183327 C706.437623,193.23056 706.739036,193.304015 707.043361,193.346561 C707.878562,193.46333 707.707146,193.617877 706.742433,193.617877 C706.272578,193.617877 705.84849,193.6548 705.799981,193.699928 C705.751493,193.745053 705.26288,193.781975 704.714196,193.781975 C704.020428,193.781975 703.701354,193.823624 703.666624,193.918726 C703.632357,194.012443 703.757164,194.055665 704.063177,194.056085 C704.308781,194.056279 704.693202,194.101854 704.917431,194.157047 C705.141682,194.212242 705.768858,194.288548 706.31117,194.326614 C706.853482,194.364682 707.356295,194.441897 707.428542,194.498201 C707.500767,194.554506 707.590421,194.57189 707.627747,194.536834 C707.665072,194.501778 707.81752,194.51399 707.966507,194.563976 C708.17565,194.634146 708.05154,194.670739 707.421958,194.724545 C706.679006,194.788041 705.831631,194.947695 705.383382,195.108644 C705.098933,195.210783 705.541316,195.323051 706.868632,195.485563 C707.525327,195.565965 708.062639,195.660954 708.062639,195.696642 C708.062639,195.732333 708.403382,195.741158 708.819833,195.71626 C709.428336,195.679868 709.577006,195.702369 709.577006,195.830869 C709.577006,196.029169 709.208305,196.353445 708.985383,196.351191 C708.848423,196.349804 708.850027,196.331189 708.994456,196.243465 C709.143148,196.153222 709.138274,196.137167 708.961688,196.135742 C708.847558,196.134752 708.722942,196.210466 708.684793,196.303842 C708.625692,196.448493 708.415072,196.465152 707.261451,196.416411 C705.815848,196.355331 705.460545,196.427726 705.726869,196.729092 C706.172923,197.233852 707.99189,197.775057 709.242318,197.775057 C709.997782,197.775057 710.392331,197.907745 710.392331,198.161804 C710.392331,198.288977 710.205976,198.321517 709.489547,198.319444 C708.993001,198.318057 708.377071,198.264984 708.12079,198.201612 C707.86451,198.138241 706.65702,198.064088 705.437483,198.036829 C703.280852,197.988628 703.21962,197.993294 703.202466,198.207208 C703.185586,198.417596 703.327779,198.569123 703.577708,198.6071 C703.641789,198.61683 704.144328,198.704455 704.694489,198.80181 C706.494972,199.120426 708.093634,199.314508 709.729855,199.413129 C711.245784,199.504498 711.762776,199.629789 711.606129,199.867826 C711.570365,199.922159 711.491029,199.937538 711.429797,199.901998 C711.368564,199.866459 711.332863,199.902593 711.350482,199.982264 C711.368206,200.062391 711.29195,200.120442 711.179888,200.112147 C711.068459,200.103904 711.002458,200.135422 711.033243,200.1822 C711.064049,200.228979 710.911285,200.298604 710.693787,200.336923 C710.223679,200.419747 710.112207,200.616942 710.35298,200.939781 C710.481289,201.11181 710.494982,201.214384 710.403451,201.317953 C710.253345,201.487797 710.351376,201.604036 710.644729,201.604036 C710.762193,201.604036 710.858282,201.624625 710.858282,201.649787 C710.858282,201.674953 710.893076,201.7807 710.935614,201.884782 C711.006657,202.058638 710.92844,202.068126 709.974572,202.001477 C709.40348,201.961576 708.739632,201.899672 708.499366,201.863912 C708.151723,201.812169 708.062533,201.833729 708.062533,201.969528 C708.062533,202.063376 707.978049,202.184567 707.874764,202.238845 C707.608102,202.378998 707.768209,203.009344 708.102644,203.13603 C708.341749,203.22661 708.342635,203.231857 708.12079,203.245782 C707.887804,203.260406 707.887804,203.260406 708.12079,203.354426 C708.348037,203.446139 708.030588,203.485341 706.839409,203.512657 C706.342525,203.524051 705.965721,203.67131 705.965721,203.854095 C705.965721,203.951775 705.845029,204.011385 705.645381,204.012316 C705.469196,204.013307 705.205868,204.043793 705.060215,204.080441 C704.811847,204.14294 704.808218,204.156206 705.001979,204.294267 C705.115581,204.375224 705.351943,204.443026 705.527221,204.44494 C705.702478,204.446922 706.191723,204.620724 706.614419,204.831316 C707.040745,205.043724 707.552567,205.214217 707.763905,205.214217 C708.469847,205.214217 709.570972,205.353502 709.516723,205.435934 C709.48712,205.480912 709.552066,205.510962 709.661047,205.502713 C709.770029,205.49447 709.877892,205.57255 709.900722,205.676236 C709.953747,205.916948 709.265929,206.331934 708.911154,206.273276 C708.769235,206.24981 708.634047,206.284333 708.610753,206.349963 C708.55583,206.504722 707.196315,206.548471 706.652547,206.412981 C706.421629,206.355446 705.229057,206.295028 704.002409,206.278721 C701.928596,206.251151 701.317078,206.307002 702.092459,206.453159 C702.268665,206.486373 702.648697,206.56366 702.937007,206.624913 C703.225317,206.686163 703.683989,206.738422 703.956284,206.741041 C704.22858,206.743677 704.451375,206.795037 704.451375,206.855206 C704.451375,206.915377 704.533454,206.964607 704.633763,206.964607 C704.734072,206.964607 704.923782,207.018694 705.055278,207.084798 C705.29183,207.203682 705.291408,207.206395 705.0185,207.334177 C704.540628,207.557929 704.688707,207.769011 705.491815,208.008822 C705.903877,208.131866 706.265573,208.304172 706.295577,208.391718 C706.325582,208.479266 706.396478,208.579447 706.45311,208.614343 C706.631278,208.724138 706.418,209.061668 706.216347,208.989 C706.114455,208.952277 706.063224,208.95243 706.102534,208.989396 C706.141843,209.026309 706.041871,209.180601 705.880351,209.332269 C705.667937,209.531772 705.448877,209.613037 705.088215,209.626147 C704.813999,209.636114 704.610827,209.676461 704.636738,209.715811 C704.662628,209.755159 704.182139,209.763228 703.568973,209.733744 C702.67754,209.690881 702.414951,209.713376 702.258727,209.845981 C702.041776,210.030129 700.897756,210.106042 700.301002,209.975889 C700.073137,209.926193 699.906841,209.941535 699.857294,210.016823 C699.813704,210.083055 699.654371,210.137242 699.503219,210.137242 C699.152763,210.137242 698.859876,210.242182 698.859876,210.367747 C698.859876,210.421477 698.9359,210.46544 699.028822,210.46544 C699.121742,210.46544 699.242253,210.540085 699.29661,210.631316 C699.357942,210.734238 699.813311,210.873539 700.496413,210.998356 C701.842297,211.244272 702.833068,211.620249 702.739384,211.849516 C702.703409,211.937567 702.599365,211.982727 702.508213,211.949873 C702.41704,211.917018 702.371738,211.934654 702.407524,211.989021 C702.44333,212.043407 702.335193,212.241284 702.167216,212.428749 C701.942417,212.679645 701.800034,212.751172 701.627668,212.69979 C701.497882,212.661109 701.422703,212.674409 701.459037,212.72962 C701.495097,212.784417 701.342288,212.834103 701.119451,212.840036 C700.896623,212.845961 700.346365,212.935502 699.89665,213.039 L699.079006,213.227181 L699.339222,213.487301 C699.482326,213.630369 699.647891,213.747421 699.707132,213.747421 C699.766362,213.747421 699.994723,213.827595 700.214614,213.925584 C700.597967,214.096428 700.607106,214.114167 700.437358,214.357477 C700.325811,214.517355 700.30365,214.636345 700.377428,214.679171 C700.44184,214.716553 700.46091,214.79822 700.419824,214.860654 C700.371628,214.933893 700.308946,214.921506 700.243183,214.825744 C700.17705,214.729436 700.110576,214.716514 700.053891,214.788942 C700.005838,214.850338 699.809262,214.971793 699.617056,215.058847 L699.267587,215.217126 L699.63627,215.254308 C700.03546,215.294566 700.24887,215.575298 699.959538,215.679567 C699.861755,215.714807 699.752763,215.716434 699.717363,215.683173 C699.681953,215.64992 699.478494,215.714758 699.265228,215.827252 C699.05196,215.939748 698.67825,216.06689 698.434766,216.109787 C698.19126,216.152687 697.921463,216.254072 697.835208,216.335093 C697.630844,216.527001 697.550862,216.522772 696.468468,216.262789 C695.497065,216.029466 695.22325,216.051216 694.824688,216.393341 C694.599862,216.586329 694.509146,216.595835 693.900502,216.490169 C693.102112,216.351562 691.597997,216.333807 691.683684,216.464001 C691.716621,216.514051 692.12597,216.616239 692.593353,216.691084 C693.784113,216.881771 693.918121,216.922732 693.722585,217.036227 C693.383635,217.232958 694.901383,217.697367 696.384687,217.850793 C696.785236,217.892224 697.138362,217.96472 697.169404,218.011897 C697.200457,218.059076 697.115913,218.228933 696.981544,218.38936 C696.755874,218.658799 696.751546,218.6959 696.924889,218.87578 C697.028093,218.982885 697.112544,219.09744 697.112544,219.13035 C697.112544,219.265551 695.139983,219.071001 694.49153,218.871845 C693.559071,218.585461 691.670961,218.376444 691.496493,218.540287 C691.404234,218.626947 691.403409,218.701366 691.493603,218.803455 C691.615413,218.941295 691.802222,219.000257 693.35573,219.391199 C693.840205,219.513117 694.083781,219.629543 694.083781,219.739188 C694.083781,219.877758 693.946334,219.892263 693.219475,219.830406 C692.665724,219.783282 692.328403,219.797514 692.280681,219.870016 C692.239726,219.932255 692.270384,219.983182 692.348978,219.983182 C692.427514,219.983182 692.464635,220.008663 692.43147,220.039805 C692.353377,220.113149 690.703589,219.787998 690.53955,219.666935 C690.41057,219.571746 688.709507,219.325688 688.346695,219.34974 C688.234572,219.357171 688.142835,219.424864 688.142835,219.50017 C688.142835,219.575476 688.11572,219.703446 688.082584,219.784548 C688.025334,219.924658 689.447944,220.20792 691.899387,220.544529 C692.267669,220.595097 692.758963,220.711016 692.991156,220.802125 C693.223338,220.893232 693.577269,220.968048 693.777667,220.968385 C694.305238,220.969376 695.062975,221.185939 694.940557,221.300908 C694.883861,221.354151 694.174467,221.411745 693.364105,221.428894 C692.553745,221.446035 691.899438,221.468426 691.910081,221.478636 C691.920694,221.488841 692.18847,221.592757 692.505063,221.709549 C693.056414,221.912934 693.069591,221.927475 692.817648,222.054106 C692.62033,222.153278 692.409486,222.157087 691.973845,222.069324 C691.264862,221.926532 691.171549,221.924639 691.171549,222.053056 C691.171549,222.108445 691.328213,222.186079 691.51968,222.225574 C692.15648,222.356925 692.018568,222.499347 691.25458,222.499347 C690.809933,222.499347 690.360303,222.56874 690.141884,222.671066 C689.920881,222.774608 689.673007,222.81228 689.517559,222.765946 C689.185244,222.666895 683.715907,222.629118 683.779865,222.726319 C683.915367,222.932229 682.387204,222.931172 681.083261,222.724337 C678.442596,222.305701 676.19588,222.067739 674.746574,222.053182 C673.9457,222.045137 672.740045,221.970911 672.067318,221.888226 C671.394591,221.805543 670.196124,221.687137 669.404062,221.6251 C668.611987,221.563065 667.930523,221.493375 667.889694,221.470232 C667.848864,221.447089 667.42231,221.396727 666.941792,221.358316 C666.461271,221.319903 665.884648,221.267653 665.66041,221.242198 C665.193613,221.189212 663.068253,221.077919 661.525037,221.025655 C660.408717,220.987846 658.712463,220.887221 657.56441,220.790705 C657.179994,220.758385 655.686015,220.710948 654.244457,220.685287 C652.80291,220.659623 651.09925,220.598278 650.458565,220.548964 C649.817868,220.499646 648.045933,220.464194 646.520923,220.470182 C644.214666,220.479218 643.729594,220.508193 643.637817,220.642304 C643.544176,220.77911 643.511587,220.780412 643.422747,220.650904 C643.353008,220.549224 643.203124,220.519851 642.973786,220.562928 C642.783979,220.598579 642.572308,220.573866 642.502013,220.50785 C642.431881,220.44199 642.20145,220.377726 641.989946,220.365032 C641.778431,220.35233 641.500536,220.312803 641.3724,220.277171 C640.674308,220.083035 639.946956,220.026584 639.653925,220.143795 C639.418705,220.237886 638.831572,220.126733 638.912695,220.003463 C638.942573,219.958051 638.381199,219.907664 637.6652,219.891492 C635.737115,219.847947 635.537171,219.828048 635.31897,219.657969 C635.141586,219.519716 635.123888,219.526075 635.158988,219.715431 C635.185744,219.859753 635.142171,219.915826 635.023734,219.889481 C634.92763,219.868105 634.731054,219.849645 634.586899,219.848456 C634.442742,219.847267 634.324797,219.808488 634.324797,219.762277 C634.324797,219.716065 634.240336,219.647817 634.137102,219.610613 C634.000798,219.561492 633.96853,219.589803 634.019273,219.71399 C634.06743,219.831831 634.044294,219.858237 633.944871,219.798913 C633.86552,219.751559 633.302608,219.697357 632.693951,219.678464 C631.41392,219.63873 631.604194,219.639247 625.588109,219.659164 C623.057377,219.667546 620.662684,219.638851 620.266551,219.595395 C619.87043,219.551941 619.458187,219.548152 619.350457,219.586953 C619.152191,219.658405 615.346769,219.799479 614.177612,219.778722 C613.263275,219.762493 612.226312,220.267306 612.803099,220.447866 C612.88908,220.47478 612.829609,220.552194 612.657486,220.637461 C612.497489,220.716718 612.337479,220.823123 612.3019,220.873911 C612.173345,221.057473 611.18419,221.159889 610.903319,221.018721 C610.726315,220.929758 610.257284,220.897807 609.519708,220.924467 C608.905994,220.946651 606.890191,220.990777 605.040146,221.022522 C603.190098,221.054267 601.549124,221.110246 601.393537,221.146917 C601.237948,221.18359 600.576655,221.221131 599.923994,221.23034 C599.271329,221.239554 598.632495,221.302416 598.504355,221.370047 C598.275083,221.491056 597.194769,221.689692 597.013911,221.644089 C596.791031,221.587892 596.377197,221.602019 595.999839,221.678708 C595.775594,221.72428 595.487286,221.753316 595.359146,221.743236 C595.23101,221.73315 595.021329,221.716221 594.89319,221.705606 C594.765052,221.695004 594.162221,221.744118 593.553565,221.814783 C592.944908,221.885446 592.220292,221.942238 591.943306,221.940987 C591.66632,221.939798 591.378008,221.985294 591.302615,222.042226 C591.227221,222.099157 590.995169,222.17995 590.786944,222.221763 C590.477069,222.283991 590.408355,222.264187 590.408355,222.112652 C590.408355,221.94864 590.311987,221.936349 589.563807,222.004941 C589.099305,222.047527 587.880538,222.093714 586.855433,222.107581 C585.830328,222.121452 584.709245,222.190625 584.364135,222.2613 C584.01903,222.331977 583.711194,222.389803 583.680061,222.389803 C583.648926,222.389803 583.688691,222.463649 583.768468,222.553904 C583.848228,222.644159 584.090534,222.718 584.306931,222.718 C584.523329,222.718 584.700381,222.738591 584.700381,222.763753 C584.700381,222.788917 584.7322,222.887378 584.771089,222.982553 C584.868062,223.219885 584.540071,223.208217 584.281227,222.965115 C584.13458,222.827393 584.064999,222.812432 584.029979,222.911097 C584.00334,222.986145 583.933605,223.019725 583.875008,222.985713 C583.816424,222.951731 583.768481,222.963732 583.768481,223.012409 C583.768481,223.061089 583.650534,223.10695 583.506379,223.114328 C583.362223,223.121699 582.562816,223.183459 581.729917,223.251558 C580.89702,223.319657 579.219575,223.395092 578.002262,223.419194 C576.78495,223.443292 575.657915,223.490001 575.497743,223.522993 C574.955039,223.634776 571.971183,223.893986 570.372215,223.968256 C567.409388,224.105872 565.163141,224.503835 564.699963,224.973191 C564.55508,225.120009 564.299801,225.238555 564.11648,225.244151 C562.609038,225.290155 560.515682,225.43759 559.596961,225.562456 C559.212547,225.614704 558.53818,225.687638 558.09837,225.724535 C557.658559,225.761432 557.035468,225.838505 556.713723,225.895811 C556.391975,225.953114 556.109672,226 556.086382,226 C556.063094,226 556.044039,225.874019 556.044039,225.720045 L556.044072,225.720223 Z M556.044072,224.72484 C556.044072,224.605167 555.992474,224.596222 555.815431,224.685205 C555.678823,224.753866 555.613966,224.86663 555.654301,224.965344 C555.706323,225.092659 555.758779,225.101754 555.882942,225.00498 C555.971562,224.935908 556.044072,224.809846 556.044072,224.72484 Z M575.67251,223.097714 C576.128247,222.944199 576.116749,222.941956 575.148308,222.995286 C572.930636,223.117411 572.236077,223.179282 572.236077,223.254713 C572.236077,223.397436 575.182326,223.262817 575.67251,223.097714 Z M521.563254,221.776598 C521.563254,221.752949 521.484623,221.733603 521.388519,221.733603 C521.292415,221.733603 521.213786,221.781288 521.213786,221.839568 C521.213786,221.897848 521.292415,221.917197 521.388519,221.882563 C521.484623,221.847929 521.563254,221.800244 521.563254,221.776598 Z M530.008725,221.405404 C530.049387,221.343615 529.953981,221.296005 529.789494,221.296005 C529.629322,221.296005 529.465875,221.345234 529.426276,221.405404 C529.385615,221.467194 529.48102,221.514805 529.645508,221.514805 C529.80568,221.514805 529.969127,221.465575 530.008725,221.405404 Z M524.475484,220.845654 C524.475484,220.732773 524.336004,220.722182 524.077299,220.815411 C523.784993,220.920754 523.863447,221.052178 524.184259,220.994581 C524.344434,220.965827 524.475484,220.89881 524.475484,220.845654 Z M590.389279,220.827839 C590.786769,220.723856 590.841348,220.683911 590.645504,220.640319 C590.33467,220.571132 586.628416,220.717345 584.642181,220.877157 C584.102445,220.920583 588.270717,221.026618 589.127018,220.991246 C589.543469,220.974046 590.111485,220.90051 590.389279,220.827839 Z M594.427277,220.491149 C594.555418,220.46268 594.319526,220.443395 593.903077,220.4483 C592.909093,220.460011 592.515628,220.560505 593.145896,220.641712 C593.402172,220.674731 593.742905,220.66601 593.903077,220.622332 C594.06325,220.578654 594.299141,220.519621 594.427277,220.491151 L594.427277,220.491149 Z M520.087542,220.523291 C520.3274,220.516712 520.325839,220.511005 520.056495,220.409942 C519.738894,220.290778 519.466447,220.350134 519.466447,220.538497 C519.466447,220.607113 519.549186,220.633217 519.650709,220.596631 C519.75205,220.560108 519.948626,220.527107 520.087542,220.523291 Z M596.177233,220.400139 C596.208387,220.370877 596.001039,220.338669 595.716455,220.328559 C595.431873,220.318453 595.16281,220.365218 595.118541,220.432489 C595.061967,220.518454 595.198887,220.539724 595.579316,220.504067 C595.877011,220.476169 596.146074,220.429401 596.177233,220.400139 L596.177233,220.400139 Z M687.269207,219.108033 C687.313787,219.040289 687.127904,219.003564 686.781001,219.01158 C686.283677,219.023073 686.260024,219.033894 686.57027,219.108033 C687.079997,219.229843 687.18905,219.229843 687.269207,219.108033 Z M507.722875,217.501712 C507.638783,217.47011 507.538313,217.473996 507.499605,217.510352 C507.460895,217.546706 507.529696,217.572561 507.652496,217.567811 C507.7882,217.56256 507.815801,217.536639 507.722875,217.501718 L507.722875,217.501712 Z M509.098902,217.357643 C509.333017,217.287232 509.344439,217.269425 509.157149,217.266839 C509.029009,217.265056 508.81933,217.305934 508.691192,217.357643 C508.39435,217.477439 508.700602,217.477439 509.098902,217.357643 Z M510.661982,217.400641 C510.763327,217.364117 510.846244,217.245728 510.846244,217.137551 C510.846244,216.969977 510.772974,216.949468 510.351164,216.998977 C509.815889,217.061807 509.466593,217.248244 509.884156,217.248244 C510.021327,217.248244 510.165954,217.297474 510.205553,217.357643 C510.288419,217.483567 510.402144,217.494281 510.661982,217.400641 L510.661982,217.400641 Z M699.908289,215.497854 C699.908289,215.437685 699.816552,215.38921 699.704437,215.390132 C699.530229,215.391519 699.525984,215.407213 699.675311,215.497854 C699.895152,215.63128 699.908289,215.63128 699.908289,215.497854 Z M513.547335,211.047147 C513.463245,211.015547 513.362771,211.019432 513.324065,211.055787 C513.285357,211.092141 513.354158,211.117994 513.476958,211.113246 C513.612661,211.107975 513.640264,211.082072 513.547335,211.047151 L513.547335,211.047147 Z M512.593582,210.727966 C512.593582,210.549658 512.269597,210.529606 511.843985,210.681575 C511.380641,210.847015 511.490604,210.963433 512.06938,210.920203 C512.421049,210.893937 512.593582,210.830663 512.593582,210.727966 Z M514.75732,210.806886 C514.641002,210.630133 514.224432,210.585057 514.224432,210.749224 C514.224432,210.841352 514.344031,210.90308 514.522528,210.90308 C514.686481,210.90308 514.79214,210.859793 514.75732,210.806886 L514.75732,210.806886 Z M513.874963,210.684282 C514.004935,210.605401 513.937795,210.577804 513.612861,210.576558 C513.372604,210.575567 513.176028,210.624113 513.176028,210.684282 C513.176028,210.823625 513.645374,210.823625 513.874963,210.684282 Z M708.062533,197.884555 C708.062533,197.824386 708.010121,197.775156 707.94604,197.775156 C707.88198,197.775156 707.829568,197.824386 707.829568,197.884555 C707.829568,197.944724 707.88198,197.993954 707.94604,197.993954 C708.010121,197.993954 708.062533,197.944724 708.062533,197.884555 Z M708.907081,195.842913 C708.827007,195.812565 708.695955,195.812565 708.61588,195.842913 C708.535785,195.873262 708.601321,195.898094 708.76147,195.898094 C708.921661,195.898094 708.987177,195.873262 708.907081,195.842913 Z M707.159749,194.525367 C707.015594,194.499291 706.779717,194.499291 706.635562,194.525367 C706.491406,194.551442 706.609334,194.572778 706.897645,194.572778 C707.185955,194.572778 707.303904,194.551442 707.159749,194.525367 L707.159749,194.525367 Z M701.772119,193.642219 C701.772119,193.595382 701.339657,193.498679 700.811086,193.427322 C700.282514,193.355968 699.7239,193.26346 699.569729,193.221751 C699.395654,193.174659 699.316406,193.186939 699.360647,193.254154 C699.399827,193.313687 699.892905,193.425026 700.456382,193.501574 C701.01987,193.578121 701.533309,193.656357 701.59739,193.675428 C701.661449,193.694511 701.726986,193.713991 701.743001,193.718741 C701.759037,193.723477 701.772119,193.689057 701.772119,193.642219 L701.772119,193.642219 Z M531.872553,192.633385 C532.080582,192.549431 532.071962,192.538539 531.79206,192.531677 C531.61965,192.527436 531.446192,192.573214 531.406595,192.633385 C531.320644,192.763991 531.548919,192.763991 531.872553,192.633385 L531.872553,192.633385 Z M700.956695,191.992435 C700.956695,191.94076 700.430615,191.842301 699.787633,191.773635 C698.339356,191.618973 698.079284,191.615852 698.227356,191.754909 C698.289501,191.813275 698.915918,191.904852 699.619398,191.95842 C700.32288,192.011984 700.911557,192.062692 700.927579,192.071102 C700.943594,192.079524 700.956695,192.044115 700.956695,191.992441 L700.956695,191.992435 Z M525.337155,190.682429 C525.370153,190.632288 525.320844,190.591263 525.22754,190.591263 C525.134255,190.591263 525.05793,190.632288 525.05793,190.682429 C525.05793,190.732571 525.107258,190.773596 525.167545,190.773596 C525.227831,190.773596 525.304156,190.732571 525.337155,190.682429 Z M540.92231,190.480065 C540.838219,190.448462 540.737747,190.452346 540.699039,190.488685 C540.660331,190.525039 540.729132,190.550896 540.851929,190.546144 C540.987636,190.540873 541.015237,190.514972 540.92231,190.480051 L540.92231,190.480065 Z M522.844636,190.335998 C522.844636,190.275827 522.752899,190.227352 522.64078,190.228271 C522.466562,190.229659 522.462327,190.245353 522.611656,190.335998 C522.831495,190.469422 522.844636,190.469422 522.844636,190.335998 L522.844636,190.335998 Z M523.310591,190.165442 C523.310591,190.138908 523.258172,190.1172 523.194102,190.1172 C523.130034,190.1172 523.077613,190.169333 523.077613,190.233053 C523.077613,190.296777 523.130034,190.318485 523.194102,190.281297 C523.258172,190.244112 523.310591,190.191975 523.310591,190.165442 L523.310591,190.165442 Z M529.950478,189.403733 C530.110651,189.361681 530.608644,189.286191 531.057129,189.235976 C531.505609,189.185759 532.056024,189.092631 532.280264,189.029032 C532.504504,188.965433 532.687977,188.917511 532.687977,188.922542 C532.687977,188.964476 533.485894,188.730382 533.88199,188.572242 C534.482953,188.332305 534.520908,188.148014 533.969358,188.148014 C533.684608,188.148014 533.561645,188.098522 533.561645,187.983913 C533.561645,187.815673 534.083007,187.749162 534.94843,187.807004 C535.325451,187.8322 536.401156,187.643649 536.647437,187.509204 C536.831391,187.408792 536.243526,187.295566 535.476685,187.283723 C534.977807,187.275975 534.552725,187.35304 534.027603,187.546311 C533.618892,187.696739 533.176486,187.820568 533.04448,187.821487 C532.853308,187.822875 532.838892,187.843616 532.973637,187.923664 C533.066682,187.97895 533.184626,187.999897 533.235737,187.970233 C533.286849,187.940566 533.328668,187.962881 533.328668,188.019732 C533.328668,188.11769 533.073683,188.186851 532.183951,188.330254 C531.970805,188.364602 531.768108,188.461979 531.73351,188.54665 C531.682079,188.672522 531.637254,188.675144 531.48767,188.561056 C531.334454,188.444185 531.315876,188.449525 531.373335,188.593885 C531.423524,188.719999 531.374601,188.761362 531.191289,188.748 C531.053432,188.737954 530.766698,188.774395 530.554101,188.828976 C530.286053,188.8978 530.11644,188.888365 530.000779,188.798218 C529.906974,188.725107 529.83399,188.715451 529.83399,188.776157 C529.83399,188.896841 528.946418,189.242012 528.636082,189.242012 C528.5261,189.242012 528.436119,189.309314 528.436119,189.391578 C528.436119,189.502934 528.592327,189.533356 529.047688,189.510666 C529.384051,189.493902 529.790306,189.445799 529.950478,189.40374 L529.950478,189.403733 Z M534.742464,185.436239 C534.658423,185.409932 534.534279,185.4404 534.466586,185.503999 C534.380143,185.585177 534.425625,185.59941 534.619388,185.551825 C534.776904,185.513142 534.829708,185.463555 534.742464,185.436239 Z M675.445317,185.002779 C675.445317,184.957652 675.286058,184.910271 675.091666,184.89748 C674.889383,184.884163 674.767883,184.919249 674.807549,184.979529 C674.888765,185.102932 675.445659,185.123241 675.445317,185.002779 Z M535.076007,184.31359 L535.367231,184.305168 L535.095507,184.202887 C534.788549,184.087331 534.26058,184.176347 534.26058,184.343648 C534.26058,184.404645 534.377738,184.424461 534.522682,184.387982 C534.666838,184.351699 534.915832,184.31823 535.076007,184.313586 L535.076007,184.31359 Z M674.513632,184.337267 C674.513632,184.287128 674.435001,184.246103 674.338907,184.246103 C674.242803,184.246103 674.164174,184.287128 674.164174,184.337267 C674.164174,184.387405 674.242803,184.42843 674.338907,184.42843 C674.435001,184.42843 674.513632,184.387405 674.513632,184.337267 Z M675.001434,184.353695 C674.917344,184.322093 674.816873,184.325982 674.778165,184.362315 C674.739446,184.398677 674.80826,184.42453 674.931057,184.419778 C675.066764,184.414547 675.094354,184.388604 675.001434,184.353685 L675.001434,184.353695 Z M537.078166,184.134899 C536.994074,184.103287 536.893602,184.107186 536.854892,184.143519 C536.816186,184.179871 536.884987,184.205734 537.007785,184.200972 C537.143489,184.195741 537.171092,184.169808 537.078166,184.134889 L537.078166,184.134899 Z M524.009528,183.990828 C524.009528,183.930663 523.957108,183.881433 523.893037,183.881433 C523.828969,183.881433 523.776549,183.930663 523.776549,183.990828 C523.776549,184.051001 523.828969,184.100229 523.893037,184.100229 C523.957108,184.100229 524.009528,184.051001 524.009528,183.990828 Z M527.038249,183.703943 C527.038249,183.581372 526.81948,183.688843 526.756821,183.84221 C526.695471,183.992346 526.712516,183.999119 526.860849,183.883504 C526.958417,183.807463 527.038249,183.726652 527.038249,183.703943 Z M528.203139,183.717338 C528.203139,183.627083 528.182525,183.553238 528.157359,183.553238 C528.132178,183.553238 528.081405,183.627083 528.044524,183.717338 C528.007648,183.807593 528.028235,183.881437 528.090305,183.881437 C528.152366,183.881437 528.203139,183.807593 528.203139,183.717338 Z M680.709407,179.977727 C680.625315,179.946116 680.524843,179.950016 680.486135,179.986346 C680.447427,180.022699 680.51623,180.048562 680.639028,180.0438 C680.774734,180.038569 680.802337,180.012636 680.709407,179.977717 L680.709407,179.977727 Z M573.45424,177.762607 C573.4911,177.706594 573.473484,177.633039 573.415077,177.599146 C573.356676,177.565242 573.278836,177.611076 573.242099,177.700982 C573.169677,177.878222 573.344698,177.929067 573.45424,177.762607 Z M518.161939,224.714734 C518.094898,224.639523 518.085781,224.576489 518.141683,224.57466 C518.197579,224.572877 518.145292,224.517848 518.025482,224.45248 C517.718141,224.284787 517.99042,224.141037 518.59278,224.152968 C518.907381,224.159191 518.98306,224.18531 518.82576,224.233343 C518.603805,224.301121 518.438351,224.579632 518.621902,224.576493 C518.963938,224.570628 519.210951,224.427655 519.157657,224.266358 C519.105624,224.108874 519.119518,224.110259 519.265927,224.277138 C519.464885,224.503918 520.351334,224.545646 520.427958,224.33184 C520.466877,224.223237 520.514241,224.223974 520.658056,224.335446 C520.88482,224.511174 521.018636,224.938161 520.826031,224.871431 C520.750989,224.845433 520.706571,224.757849 520.727327,224.676805 C520.753721,224.573755 520.700254,224.584536 520.54949,224.712673 C520.377333,224.858987 520.127461,224.891424 519.308874,224.8737 C518.657924,224.859611 518.239349,224.801603 518.161944,224.71476 L518.161939,224.714734 Z M516.562851,224.4736 C516.407675,224.383533 516.4823,224.140389 516.665116,224.140389 C516.797998,224.140389 516.914658,224.449304 516.805668,224.512564 C516.757353,224.540607 516.648087,224.523066 516.562851,224.4736 Z M519.027522,223.593392 C518.898679,223.399636 518.912139,223.372686 519.145115,223.357929 C519.289812,223.348774 519.486831,223.333225 519.582935,223.323396 C519.893677,223.291612 519.952145,223.391578 519.747203,223.604253 C519.488304,223.87292 519.21062,223.868731 519.027522,223.593394 L519.027522,223.593392 Z M589.592975,222.779354 C589.592975,222.752818 589.645394,222.700685 589.709464,222.663497 C589.773534,222.626311 589.825955,222.648021 589.825955,222.71174 C589.825955,222.77546 589.773534,222.827597 589.709464,222.827597 C589.645394,222.827597 589.592975,222.805887 589.592975,222.779354 Z M590.959782,222.704621 C591.0388,222.629858 591.132796,222.596244 591.168662,222.629927 C591.204528,222.66361 591.139875,222.724781 591.024992,222.765863 C590.858973,222.825231 590.845591,222.812666 590.959782,222.704621 Z M528.436119,222.403393 C528.436119,222.350592 528.51697,222.244371 528.615788,222.167351 C528.755472,222.058481 528.826553,222.056515 528.935161,222.158513 C529.043769,222.260513 529.03619,222.312674 528.901102,222.392883 C528.681432,222.523308 528.436119,222.528854 528.436119,222.403385 L528.436119,222.403393 Z M659.952482,221.405404 C659.952482,221.345234 660.028012,221.296005 660.120345,221.296005 C660.212658,221.296005 660.320599,221.345234 660.360193,221.405404 C660.399787,221.465575 660.324258,221.514805 660.19233,221.514805 C660.060415,221.514805 659.952482,221.465575 659.952482,221.405404 Z M657.972163,221.289207 C657.972163,221.164668 658.285099,221.151992 658.364935,221.273294 C658.396318,221.320973 658.320767,221.367146 658.197072,221.375897 C658.073367,221.384655 657.972163,221.345636 657.972163,221.289207 Z M542.449102,221.112682 C542.344271,220.856128 542.504002,220.818486 542.90663,221.00486 C543.116659,221.10208 543.236079,221.189028 543.172009,221.198076 C542.681075,221.267415 542.503768,221.246472 542.449102,221.112682 L542.449102,221.112682 Z M643.178029,220.858407 C643.178029,220.798237 643.201138,220.749008 643.2294,220.749008 C643.257648,220.749008 643.313171,220.798237 643.352763,220.858407 C643.392357,220.918578 643.369242,220.967808 643.301395,220.967808 C643.23355,220.967808 643.178029,220.918578 643.178029,220.858407 Z M641.498592,220.763692 C641.448417,220.687439 641.438825,220.595507 641.477275,220.559397 C641.581517,220.461489 641.695187,220.605487 641.638895,220.764132 C641.599425,220.8753 641.571989,220.875215 641.498592,220.763537 L641.498592,220.763692 Z M641.925774,220.785955 C641.687296,220.695583 641.760724,220.545922 642.013141,220.607912 C642.141275,220.639379 642.246117,220.708616 642.246117,220.761768 C642.246117,220.866066 642.155277,220.872924 641.925774,220.785955 Z M697.772655,220.238478 C697.638617,220.1126 697.687822,219.983213 697.869728,219.983213 C697.965832,219.983213 698.044461,220.057057 698.044461,220.147312 C698.044461,220.318146 697.906693,220.364356 697.772655,220.238478 Z M553.20503,219.568326 C553.173652,219.520645 553.250323,219.474393 553.375406,219.465546 C553.500491,219.456708 553.572396,219.495707 553.535197,219.552236 C553.452658,219.67766 553.28244,219.685955 553.20503,219.568326 Z M554.255059,219.380409 C554.291688,219.290764 554.407787,219.213624 554.513053,219.208991 C554.618318,219.204354 554.940336,219.178391 555.228646,219.151289 C555.606697,219.115751 555.70413,219.13288 555.578115,219.212738 C555.433955,219.304091 555.432255,219.32376 555.568409,219.325141 C555.65917,219.326132 555.700767,219.357494 555.660839,219.394992 C555.620914,219.432489 555.273294,219.48122 554.888352,219.503287 C554.305277,219.536708 554.199576,219.516187 554.255059,219.380409 L554.255059,219.380409 Z M506.71585,219.115577 C506.629699,218.984668 506.848837,218.854962 507.003998,218.945021 C507.134274,219.020636 507.048749,219.217418 506.885608,219.217418 C506.829102,219.217418 506.75271,219.171588 506.71585,219.115577 Z M507.817521,216.270089 C507.817521,216.213472 507.869343,216.137068 507.932678,216.10031 C507.998713,216.061982 508.018239,216.105898 507.978459,216.203253 C507.90102,216.392777 507.817521,216.427452 507.817521,216.270089 L507.817521,216.270089 Z M508.671777,216.213747 C508.671777,216.126137 508.716315,216.080311 508.770751,216.111906 C508.825187,216.1435 508.839567,216.21518 508.802707,216.271193 C508.70851,216.414328 508.671777,216.398212 508.671777,216.213747 Z M711.673713,201.932314 C711.577602,201.873988 711.551396,201.826264 711.615477,201.826264 C711.679536,201.826264 711.810588,201.873988 711.906678,201.932314 C712.002788,201.990642 712.028994,202.038364 711.964935,202.038364 C711.900875,202.038364 711.769823,201.990642 711.673713,201.932314 Z M520.281871,193.813481 C520.281871,193.766113 520.38671,193.727361 520.51485,193.727361 C520.642986,193.727361 520.747828,193.773532 520.747828,193.829959 C520.747828,193.886391 520.642986,193.925145 520.51485,193.916079 C520.38671,193.907003 520.281871,193.860844 520.281871,193.813481 Z M525.160052,192.206842 L524.886893,191.999115 L525.58398,191.912207 C525.967378,191.86441 526.556211,191.822505 526.892496,191.819087 C527.228782,191.815659 527.503987,191.779386 527.504065,191.73846 C527.504177,191.653284 528.198031,191.822919 528.306327,191.934609 C528.34568,191.975194 528.216164,191.979569 528.018519,191.944339 C527.797294,191.904899 527.52863,191.945131 527.319581,192.048837 C527.132813,192.141549 526.704797,192.22217 526.368436,192.227992 C526.032072,192.233817 525.756865,192.278183 525.756865,192.326577 C525.756865,192.483403 525.440169,192.419868 525.160052,192.206848 L525.160052,192.206842 Z M523.691608,192.239073 C523.730316,192.202721 523.830788,192.198835 523.914878,192.230453 C524.007807,192.265374 523.980204,192.291297 523.844501,192.296546 C523.721703,192.301282 523.6529,192.275441 523.691608,192.239088 L523.691608,192.239073 Z M521.57245,190.727994 C521.567407,190.61267 521.594923,190.548055 521.633631,190.584407 C521.672341,190.620761 521.676479,190.715118 521.642831,190.794089 C521.605644,190.88136 521.578041,190.855437 521.572452,190.727994 L521.57245,190.727994 Z M524.753864,189.808496 C524.786398,189.759061 524.705744,189.632351 524.574633,189.526925 C524.340068,189.338307 524.347797,189.330101 525.057016,189.015111 C525.911201,188.635736 525.989845,188.627193 525.989845,188.913787 C525.989845,189.048598 525.911591,189.133231 525.78599,189.134256 C525.620764,189.135643 525.613364,189.154507 525.746938,189.233907 C525.837581,189.28779 526.007947,189.314476 526.125529,189.293218 C526.243108,189.271952 526.339312,189.304711 526.339312,189.366047 C526.339312,189.427371 526.168948,189.468784 525.960723,189.458081 C525.752498,189.447381 525.477292,189.444369 525.349152,189.451403 C525.15506,189.462025 525.145339,189.481862 525.29091,189.570211 C525.440237,189.660844 525.436004,189.676499 525.261786,189.677932 C525.149664,189.678922 525.05793,189.728844 525.05793,189.789009 C525.05793,189.84918 524.976206,189.898408 524.876322,189.898408 C524.776437,189.898408 524.721332,189.85796 524.753864,189.808523 L524.753864,189.808496 Z M526.243355,188.925706 C526.126246,188.857736 526.13081,188.812104 526.265183,188.707366 C526.453678,188.56045 526.603886,188.688779 526.474162,188.885883 C526.427913,188.956165 526.326099,188.973728 526.243355,188.925706 L526.243355,188.925706 Z M522.203943,184.319011 C522.164347,184.258837 522.210589,184.209608 522.306685,184.209608 C522.402789,184.209608 522.513815,184.258837 522.553411,184.319011 C522.593008,184.379184 522.546786,184.428414 522.450671,184.428414 C522.354567,184.428414 522.243541,184.379184 522.203943,184.319011 Z M524.589759,183.829218 C524.757521,183.639391 524.824952,183.619633 524.824952,183.760307 C524.824952,183.814047 524.738909,183.889014 524.633742,183.926914 C524.473861,183.984533 524.466655,183.968529 524.589759,183.829218 Z M689.224087,182.063754 C689.36063,181.935513 690.106496,181.835023 690.256968,181.92458 C690.343573,181.976113 690.361993,182.023921 690.297932,182.030809 C689.670947,182.098317 689.170956,182.113653 689.224087,182.063754 L689.224087,182.063754 Z M688.516887,181.928789 C688.420051,181.871093 688.492471,181.839299 688.720747,181.839299 C688.915468,181.839299 689.07479,181.880324 689.07479,181.930464 C689.07479,182.046899 688.713288,182.045817 688.516887,181.92868 L688.516887,181.928789 Z M685.521874,181.789122 C685.02318,181.684284 683.812619,181.609085 681.550644,181.542459 C680.776002,181.519633 680.030137,181.444638 679.893172,181.375804 C679.744122,181.300886 679.222269,181.262773 678.593257,181.280866 C678.015252,181.297512 677.542357,181.299929 677.542357,181.286197 C677.542357,181.248133 678.220141,180.927557 678.300627,180.927557 C678.339622,180.927557 678.339128,180.976787 678.299572,181.036952 C678.257566,181.10078 678.376028,181.146355 678.583926,181.146355 C678.779905,181.146355 678.940267,181.097124 678.940267,181.036952 C678.940267,180.976787 678.99579,180.927557 679.063632,180.927557 C679.131486,180.927557 679.147632,180.989095 679.099517,181.064304 C679.034837,181.165416 679.055813,181.172189 679.180001,181.090264 C679.272387,181.029327 679.452818,180.985118 679.580954,180.992027 C679.709098,180.998904 680.092236,181.011853 680.432381,181.020764 C680.772525,181.029662 681.026489,181.073873 680.996734,181.119001 C680.966981,181.164128 681.265294,181.193841 681.659664,181.185037 C682.054031,181.17614 682.468437,181.214896 682.580552,181.270939 C682.716609,181.338968 682.784412,181.333045 682.784412,181.253164 C682.784412,181.18732 682.847783,181.170233 682.92522,181.215187 C683.002676,181.260141 683.513773,181.310346 684.060993,181.326768 C684.608223,181.343175 685.055948,181.36244 685.055948,181.369572 C685.055948,181.376725 685.31805,181.398483 685.638403,181.41799 C685.958745,181.437488 686.233953,181.464345 686.249963,181.477679 C686.277296,181.500425 686.397313,181.533565 686.599432,181.574174 C686.692124,181.592801 686.145328,181.910529 686.046112,181.895707 C686.014072,181.890872 685.778191,181.842925 685.52191,181.789052 L685.521874,181.789122 Z M680.804057,181.242154 C680.804057,181.18951 680.702317,181.146432 680.577954,181.146432 C680.453599,181.146432 680.323507,181.18951 680.288858,181.242154 C680.2542,181.294809 680.355961,181.337876 680.514951,181.337876 C680.673965,181.337876 680.804057,181.294809 680.804057,181.242154 Z M687.035056,180.925847 C686.994814,180.864697 686.913092,180.842985 686.85345,180.877603 C686.793807,180.912223 686.745003,180.891316 686.745003,180.831151 C686.745003,180.61934 686.932955,180.615983 687.072146,180.825345 C687.14958,180.941792 687.189381,181.037059 687.160584,181.037059 C687.131789,181.037059 687.075298,180.987026 687.035056,180.925886 L687.035056,180.925847 Z M684.541414,180.499159 C684.418625,180.383825 684.29384,180.312302 684.264127,180.340197 C684.234424,180.368112 683.954849,180.407434 683.64285,180.427608 C683.10242,180.462556 682.432341,180.237171 682.602255,180.07761 C682.738251,179.949881 683.542718,179.979778 683.718443,180.119079 C683.898358,180.261709 684.226181,180.266441 684.373015,180.128471 C684.496638,180.012382 685.090848,180.037838 685.173043,180.162751 C685.284942,180.332782 685.118666,180.708769 684.931568,180.708769 C684.839792,180.708769 684.664223,180.614412 684.541414,180.499088 L684.541414,180.499159 Z M685.743722,180.582534 C685.694113,180.507141 685.711588,180.485807 685.787044,180.529608 C685.856588,180.569985 685.946419,180.552965 685.98665,180.491816 C686.095199,180.326875 686.240221,180.357149 686.240221,180.544732 C686.240221,180.737442 685.86449,180.766044 685.743722,180.582534 Z M549.552223,179.767552 C549.59093,179.73119 549.691402,179.727301 549.775494,179.758933 C549.868421,179.793852 549.84082,179.819773 549.705115,179.825028 C549.582315,179.829764 549.513515,179.803924 549.552223,179.767564 L549.552223,179.767552 Z M573.051501,176.661049 C573.051501,176.600886 573.074618,176.551656 573.102871,176.551656 C573.131126,176.551656 573.186638,176.600886 573.226236,176.661049 C573.265834,176.721224 573.242715,176.770452 573.174866,176.770452 C573.107017,176.770452 573.051501,176.721224 573.051501,176.661049 Z M575.76781,176.672126 C575.579771,176.542376 575.624742,176.355926 575.831811,176.406771 C575.963857,176.439213 576.048575,176.394584 576.060807,176.286164 C576.071484,176.191506 576.088959,176.040219 576.099637,175.949964 C576.110314,175.859709 576.215155,175.77972 576.332617,175.772192 C576.450076,175.764642 576.585494,175.748352 576.633545,175.735927 C576.681598,175.723483 576.878174,175.673636 577.07038,175.625111 C577.497799,175.517228 577.729956,175.356071 577.644669,175.226473 C577.609559,175.173123 577.684399,175.129475 577.81098,175.129475 C577.937559,175.129475 578.067712,175.191003 578.100208,175.266222 C578.141258,175.361236 578.188665,175.36714 578.255527,175.285602 C578.426551,175.077005 578.78321,175.011896 578.971336,175.154952 C579.122359,175.269773 579.136545,175.266909 579.053949,175.138228 C578.978204,175.020233 579.003121,175.000504 579.157604,175.056178 C579.26946,175.096498 579.431786,175.129471 579.518332,175.129471 C579.604878,175.129471 579.707255,175.222871 579.745836,175.337035 C579.790929,175.470461 579.890812,175.526213 580.025494,175.493142 C580.32283,175.420119 580.292071,175.149626 579.99232,175.20143 C579.755466,175.242358 579.755234,175.240858 579.982614,175.139399 C580.110752,175.082226 580.39302,175.031989 580.609875,175.027761 C580.826728,175.0235 581.324721,174.971787 581.716521,174.912766 C582.732013,174.759821 585.284718,174.491797 586.447766,174.416015 C586.992353,174.380545 587.673817,174.332002 587.962127,174.308142 C588.569541,174.257887 589.768679,174.177889 591.340317,174.082777 C591.948971,174.045942 592.787696,173.98869 593.204144,173.95556 C594.205033,173.87593 595.78062,173.869989 595.999887,173.945058 C596.095991,173.977954 596.397405,174.042664 596.669698,174.088877 C596.941994,174.135077 597.16478,174.209107 597.16478,174.253381 C597.16478,174.297648 597.035186,174.455584 596.876795,174.604329 C596.642344,174.824518 596.479851,174.872789 596.002639,174.864023 C595.654079,174.857543 595.432397,174.898169 595.455765,174.964041 C595.477378,175.024959 595.898649,175.078862 596.391925,175.083808 C597.166597,175.091555 597.682559,175.233102 597.50648,175.38949 C597.427713,175.459465 595.883365,175.528607 595.88366,175.462154 C595.883763,175.429615 595.529967,175.418401 595.097356,175.43722 C594.664745,175.456045 594.010069,175.426738 593.642516,175.371967 C593.274967,175.317251 592.949375,175.295838 592.91898,175.324393 C592.888588,175.352926 592.638899,175.386664 592.364118,175.39936 C592.089339,175.412062 591.719684,175.46048 591.542659,175.506982 C591.351246,175.557266 591.160838,175.544804 591.072853,175.476224 C590.991479,175.412809 590.418068,175.349539 589.798599,175.335627 C589.031758,175.318426 588.69623,175.272763 588.747284,175.19257 C588.78853,175.127812 588.733294,175.142597 588.624547,175.225449 C588.488526,175.329066 588.278931,175.353875 587.952924,175.304916 C587.641707,175.258182 587.504323,175.272192 587.552716,175.345727 C587.635202,175.471065 587.619854,175.473465 586.564255,175.500104 C586.147807,175.510606 585.689131,175.557914 585.544975,175.605228 C585.40082,175.652542 585.282873,175.651015 585.282873,175.60184 C585.282873,175.552659 585.151824,175.512417 584.991651,175.512417 C584.831479,175.512417 584.700427,175.54934 584.700427,175.594468 C584.700427,175.639595 584.618705,175.676518 584.51882,175.676518 C584.418934,175.676518 584.364581,175.63494 584.398033,175.584095 C584.478881,175.461243 583.282204,175.641666 583.195341,175.765427 C583.036326,175.991993 580.856281,176.221586 580.856281,176.011769 C580.856281,175.947736 580.800766,175.895314 580.732915,175.895314 C580.665064,175.895314 580.63971,175.941148 580.67657,175.997159 C580.781945,176.157282 580.513933,176.255868 580.34058,176.120748 C580.224285,176.030105 580.169634,176.035649 580.125978,176.142488 C580.088281,176.234736 579.89659,176.276875 579.588171,176.260677 C579.324594,176.246846 579.108942,176.2815 579.108942,176.337695 C579.108942,176.518611 578.510468,176.399804 578.394221,176.19582 C578.332405,176.087346 578.231182,176.027986 578.169281,176.063912 C578.107382,176.099838 578.083501,176.169909 578.116212,176.219613 C578.148926,176.269317 578.099037,176.337618 578.005355,176.371376 C577.911671,176.405144 577.803525,176.38491 577.765028,176.326404 C577.722353,176.261557 577.57313,176.28384 577.382707,176.38348 C577.024385,176.570994 575.909898,176.770226 575.767808,176.672174 L575.76781,176.672126 Z M574.099906,176.175223 C574.099906,175.983064 574.169804,175.954773 574.269664,176.106506 C574.306526,176.16252 574.2834,176.239276 574.218294,176.277059 C574.153182,176.314853 574.099906,176.269132 574.099906,176.175223 L574.099906,176.175223 Z M574.53889,175.986246 C574.606581,175.922669 574.730727,175.892181 574.814766,175.918488 C574.90201,175.945802 574.849205,175.995391 574.69169,176.034074 C574.497926,176.081659 574.452447,176.067416 574.53889,175.986246 Z M614.667286,175.708661 C614.523131,175.682585 614.405184,175.623671 614.405184,175.57775 C614.405184,175.443868 614.91148,175.516648 614.961561,175.657728 C614.986581,175.728207 614.989575,175.779159 614.968186,175.770964 C614.946833,175.76274 614.811413,175.734738 614.66726,175.708661 L614.667286,175.708661 Z M612.250134,175.457664 C612.570375,175.328437 612.754299,175.328437 612.541356,175.457664 C612.445252,175.516 612.287991,175.561021 612.191889,175.557702 C612.076671,175.553739 612.096519,175.519666 612.250134,175.457664 Z M612.955779,175.467849 C612.919877,175.413289 612.995419,175.39442 613.12364,175.425915 C613.395642,175.492716 613.430031,175.567055 613.188921,175.567055 C613.096604,175.567055 612.991693,175.52241 612.955779,175.467849 L612.955779,175.467849 Z M597.959427,175.220279 C597.776066,175.0472 597.859297,175.035191 599.299053,175.027045 C600.143377,175.02221 600.95103,174.997147 601.093839,174.971226 C601.236648,174.945305 601.380673,174.96542 601.413899,175.015899 C601.447125,175.066385 601.634719,175.097262 601.830771,175.084509 C602.360828,175.050053 602.363348,175.209325 601.833493,175.256784 C601.582962,175.279223 601.402878,175.259696 601.433304,175.213516 C601.528932,175.068205 601.349552,175.122117 601.167012,175.293552 C600.968837,175.479664 600.476759,175.51317 600.368033,175.347958 C600.320102,175.275119 600.21912,175.276813 600.067527,175.352991 C599.80962,175.482616 599.56682,175.394529 599.685389,175.214358 C599.73724,175.13557 599.708481,175.12808 599.599922,175.192075 C599.509939,175.245128 599.148002,175.314695 598.795624,175.346674 C598.291374,175.392421 598.113296,175.365519 597.959423,175.220261 L597.959427,175.220279 Z M607.299341,175.348239 C607.299341,175.288075 607.322456,175.238846 607.350711,175.238846 C607.378962,175.238846 607.434478,175.288075 607.474074,175.348239 C607.513671,175.408412 607.490553,175.457642 607.422704,175.457642 C607.354855,175.457642 607.299341,175.408412 607.299341,175.348239 Z M602.63977,175.129443 C602.534779,175.065728 602.520414,175.022719 602.603772,175.021715 C602.680078,175.020724 602.774907,175.069271 602.814504,175.129443 C602.903887,175.265271 602.863559,175.265271 602.63977,175.129443 Z M648.13863,175.114522 C648.19891,175.022933 647.755091,174.915195 647.665209,174.999614 C647.539959,175.117233 647.022174,175.139456 647.022174,175.0272 C647.022174,174.957767 646.690735,174.941039 646.119388,174.981647 C645.418946,175.031438 645.125204,175.005779 644.80888,174.867213 C644.584642,174.768994 644.489516,174.711201 644.597498,174.738787 C644.705481,174.766372 644.810323,174.746139 644.830473,174.693892 C644.850624,174.641624 644.945751,174.582854 645.041855,174.56329 C645.137959,174.543752 645.2551,174.478512 645.302174,174.418338 C645.349248,174.358165 645.388562,174.416753 645.389541,174.548603 C645.391229,174.775159 645.408847,174.779667 645.711666,174.631098 C645.999042,174.490113 646.048618,174.493596 646.193299,174.664933 C646.346685,174.846595 646.351148,174.846575 646.284324,174.664933 C646.230091,174.517185 646.278353,174.473489 646.495839,174.473489 C646.650823,174.473489 646.831048,174.559642 646.896357,174.664933 C646.962254,174.771182 647.016663,174.795525 647.018629,174.719639 C647.022343,174.576381 647.371643,174.522246 647.371643,174.664933 C647.371643,174.71006 647.767928,174.744137 648.252278,174.740663 C648.736631,174.737176 649.159074,174.774103 649.191063,174.822715 C649.223053,174.871315 649.36145,174.911081 649.498621,174.911081 C649.698143,174.911081 649.718903,174.938435 649.60241,175.047828 C649.456617,175.184749 648.050263,175.249257 648.13863,175.114968 L648.13863,175.114522 Z M650.050899,175.111233 C650.050899,175.061085 650.090214,175.016741 650.138265,175.012677 C650.186318,175.008615 650.393352,174.984685 650.598344,174.959509 C651.059238,174.902877 651.22332,175.090557 650.77996,175.167236 C650.341631,175.243045 650.050899,175.220723 650.050899,175.111233 L650.050899,175.111233 Z M641.663776,174.746557 C641.663795,174.686394 641.46721,174.637164 641.226919,174.637164 C640.986607,174.637164 640.751488,174.686394 640.704416,174.746557 C640.64736,174.819493 640.618151,174.819493 640.616781,174.746557 C640.614207,174.609501 639.916329,174.577078 639.916329,174.714027 C639.916329,174.769111 639.86869,174.786527 639.810468,174.752729 C639.699518,174.688338 638.67485,174.584953 637.586542,174.528341 C637.234168,174.510012 636.945855,174.48396 636.945855,174.470441 C636.945855,174.397119 635.413139,174.395988 635.315077,174.469253 C635.140033,174.600021 633.975379,174.691253 633.975379,174.574185 C633.975379,174.51857 633.896748,174.473075 633.800644,174.473075 C633.70454,174.473075 633.625911,174.520573 633.625911,174.578646 C633.625911,174.644557 632.805418,174.664759 631.441736,174.632443 C630.24044,174.603978 629.131114,174.5812 628.976567,174.58183 C628.822022,174.582821 628.520607,174.537583 628.306754,174.482131 C628.072926,174.421504 627.917938,174.421126 627.917938,174.48114 C627.917938,174.580558 627.510516,174.564458 627.400016,174.460666 C627.368131,174.430731 626.838024,174.423734 626.221995,174.445131 C625.479538,174.470917 625.046455,174.440771 624.937338,174.355728 C624.809141,174.255797 624.772332,174.260636 624.770946,174.377575 C624.76968,174.472437 624.737652,174.485644 624.683579,174.413433 C624.632194,174.344843 623.969488,174.293716 623.025388,174.28554 C622.160457,174.27809 619.539447,174.243741 617.200927,174.209335 C614.862406,174.174939 611.861352,174.140221 610.531917,174.13221 C609.202484,174.124283 608.114645,174.086842 608.114501,174.049194 C608.114398,174.011526 607.826031,173.980718 607.473779,173.980718 C607.121529,173.980718 606.833337,174.017641 606.833352,174.062767 C606.833369,174.107896 606.777867,174.144819 606.710018,174.144819 C606.642169,174.144819 606.619052,174.095588 606.65865,174.035416 C606.698246,173.975251 606.648923,173.926021 606.549036,173.926021 C606.449151,173.92607 606.367426,173.87684 606.367426,173.816677 C606.367426,173.756504 606.311912,173.707274 606.244061,173.707274 C606.176212,173.707274 606.153097,173.756504 606.192693,173.816677 C606.235218,173.88129 606.106904,173.925392 605.879223,173.924396 C605.587488,173.923009 605.536247,173.896937 605.668491,173.816677 C605.797547,173.738351 605.802984,173.710187 605.689295,173.708948 C605.570747,173.707561 605.575528,173.669549 605.7101,173.543174 C605.806204,173.452921 605.993418,173.379075 606.126135,173.379075 C606.258848,173.379075 606.367432,173.326526 606.367432,173.262299 C606.367432,173.193031 606.468119,173.175547 606.614999,173.21933 C606.781596,173.268984 606.836496,173.253504 606.782857,173.172006 C606.739018,173.105379 606.734144,173.050876 606.772012,173.050876 C606.809891,173.050876 606.880768,173.152123 606.929513,173.275874 L607.018141,173.500883 L607.325328,173.273948 C607.53591,173.118402 607.657975,173.085708 607.713466,173.170032 C607.77086,173.257248 607.822836,173.249856 607.892093,173.144615 C607.971471,173.023988 608.770694,172.996943 612.158509,173.000263 C614.451319,173.002581 617.270814,173.035957 618.424057,173.074619 C619.577301,173.113274 621.490635,173.173447 622.675915,173.208338 C626.955823,173.334295 628.058369,173.380072 628.154264,173.435736 C628.368594,173.560116 629.307252,173.670448 629.44938,173.587953 C629.536981,173.537118 629.639025,173.555269 629.691317,173.631001 C629.758811,173.728735 629.810871,173.720327 629.896466,173.597871 C629.959557,173.507616 630.012045,173.483001 630.013106,173.543174 C630.014372,173.61222 630.734781,173.647692 631.966084,173.639351 C633.912003,173.626154 637.236953,173.802752 637.2372,173.919327 C637.237274,173.953123 637.643531,173.975231 638.139988,173.968478 C638.990808,173.956886 640.950687,174.106598 641.298187,174.209741 C641.426363,174.247795 641.428794,174.288695 641.310847,174.42218 C641.191963,174.556702 641.194942,174.578531 641.326862,174.53941 C641.416011,174.512978 641.635242,174.461174 641.814048,174.4243 C642.014352,174.382985 642.113311,174.305994 642.071812,174.223713 C642.034762,174.150266 642.065524,174.167236 642.140241,174.261401 C642.250048,174.399887 642.399727,174.41687 642.922848,174.350203 C643.290716,174.303325 643.657761,174.312042 643.773914,174.370415 C643.886247,174.426882 644.125742,174.479771 644.306153,174.487965 C644.608303,174.501677 644.61201,174.50679 644.353166,174.5526 C644.135737,174.591088 644.109392,174.62446 644.236684,174.700124 C644.416774,174.807185 644.265407,174.820596 642.624737,174.842909 C642.05241,174.850657 641.66374,174.811723 641.663782,174.746567 L641.663776,174.746557 Z M607.80768,173.762598 C607.770943,173.672682 607.693957,173.626364 607.636603,173.659659 C607.472129,173.755119 607.514989,173.92606 607.703397,173.92606 C607.807315,173.92606 607.848251,173.861891 607.80768,173.762598 L607.80768,173.762598 Z M601.013655,174.136563 C601.133537,173.926185 601.126416,173.902295 600.961532,173.961715 C600.797059,174.020988 600.789649,173.99703 600.90814,173.789099 L601.045729,173.547664 L601.161617,173.791568 C601.294578,174.071397 601.535135,174.112085 601.633495,173.871363 C601.670371,173.781108 601.658505,173.707264 601.607126,173.707264 C601.555746,173.707264 601.513706,173.632818 601.513706,173.541818 C601.513706,173.407309 601.618961,173.389484 602.07674,173.446514 C602.461383,173.494427 602.63977,173.477524 602.63977,173.393172 C602.63977,173.324572 602.824081,173.269672 603.054358,173.269672 C603.326159,173.269672 603.441676,173.311113 603.389768,173.389988 C603.333473,173.47552 603.381243,173.474795 603.555006,173.387471 C603.758087,173.285402 603.787907,173.292803 603.731334,173.431252 C603.693886,173.522892 603.616436,173.597877 603.559222,173.597877 C603.502007,173.597877 603.455194,173.647107 603.455194,173.70727 C603.455194,173.935316 603.665715,173.803515 603.804663,173.488474 C603.966717,173.12106 603.970889,173.119038 604.262915,173.265808 C604.410222,173.339848 604.455746,173.455451 604.415485,173.653242 C604.383923,173.808295 604.403943,173.920813 604.459972,173.903262 C604.516001,173.885725 604.588053,173.919471 604.620087,173.978287 C604.654539,174.041527 604.377659,174.092778 603.942305,174.10376 C603.269426,174.120723 603.195361,174.099797 603.079057,173.860097 C602.953669,173.601642 602.523281,173.488302 602.523281,173.713724 C602.523281,173.777458 602.575101,173.799509 602.638437,173.762752 C602.703418,173.725025 602.724594,173.766914 602.687041,173.858782 C602.648155,173.953953 602.543915,173.994068 602.436286,173.955269 C602.316544,173.912124 602.280821,173.93256 602.334202,174.01368 C602.427912,174.156078 602.040773,174.261222 601.591367,174.215428 C601.431194,174.19912 601.204441,174.229517 601.087469,174.282994 C600.896896,174.370122 600.889226,174.354921 601.013655,174.136571 L601.013655,174.136563 Z M604.200377,173.725503 C604.233375,173.675363 604.186345,173.634338 604.095885,173.634338 C604.005419,173.634338 603.958398,173.675363 603.991396,173.725503 C604.024394,173.775641 604.071415,173.816667 604.095885,173.816667 C604.120357,173.816667 604.167378,173.775641 604.200377,173.725503 Z M599.444501,174.157299 C599.409406,174.103966 599.485159,174.034688 599.612839,174.00333 C599.767464,173.965353 599.821216,173.888131 599.773803,173.772099 C599.734647,173.676272 599.751907,173.597869 599.81215,173.597869 C599.971929,173.597869 599.946103,173.955231 599.774691,174.116216 C599.600818,174.279503 599.530663,174.288229 599.444501,174.157299 Z M600.15882,173.853134 C600.191601,173.772904 600.233417,173.707264 600.251741,173.707264 C600.270055,173.707264 600.31188,173.772904 600.344661,173.853134 C600.377444,173.933364 600.33563,173.999004 600.251741,173.999004 C600.167855,173.999004 600.126039,173.933364 600.15882,173.853134 Z M600.608065,173.546647 C600.732432,173.458308 600.949038,173.384463 601.089412,173.382547 C601.36727,173.378683 601.544311,173.544654 601.370239,173.645697 C601.310595,173.680307 601.24171,173.652077 601.217158,173.582863 C601.183611,173.488351 601.110679,173.488167 600.923645,173.581872 C600.565571,173.761849 600.340373,173.736488 600.608065,173.546342 L600.608065,173.546647 Z M599.060152,173.531766 C599.098862,173.495414 599.199334,173.491526 599.283424,173.523146 C599.37635,173.558065 599.348747,173.583988 599.213045,173.589231 C599.090247,173.593967 599.021444,173.56813 599.060152,173.531778 L599.060152,173.531766 Z M605.202533,173.488458 C605.053207,173.397835 605.057439,173.38216 605.231658,173.380728 C605.343777,173.379737 605.435513,173.428284 605.435513,173.488458 C605.435513,173.621886 605.422368,173.621886 605.202533,173.488458 Z M604.576927,173.321833 C604.521379,173.185879 604.551261,173.176514 604.739199,173.270978 C605.009228,173.406698 605.034824,173.488458 604.807286,173.488458 C604.718035,173.488458 604.614375,173.413471 604.576927,173.321833 L604.576927,173.321833 Z" id="path2987"></path>
        </g>
    </g>
</svg>